<mxfile host="app.diagrams.net" modified="2021-05-12T14:41:37.797Z" agent="5.0 (Windows NT 10.0; Win64; x64) AppleWebKit/537.36 (KHTML, like Gecko) Chrome/90.0.4430.93 Safari/537.36" etag="utUG1helNxugBhuSkdTH" version="14.6.10" type="github" pages="6">
  <diagram id="XsIqeZV2yuDGrUJYdJPJ" name="(c) Activity">
    <mxGraphModel dx="1182" dy="732" grid="1" gridSize="10" guides="1" tooltips="1" connect="1" arrows="1" fold="1" page="1" pageScale="1" pageWidth="827" pageHeight="1169" math="0" shadow="0">
      <root>
        <mxCell id="0" />
        <mxCell id="1" parent="0" />
        <mxCell id="8xSkgKxFmKDJl1FLE58u-17" value="判斷回合結束及計分" style="shape=umlFrame;whiteSpace=wrap;html=1;width=127;height=20;fontStyle=1" parent="1" vertex="1">
          <mxGeometry x="30" y="80" width="480" height="730" as="geometry" />
        </mxCell>
        <mxCell id="VywLTkr9V0jCwjZuJMwq-7" value="&lt;ul class=&quot;part&quot; title=&quot;&quot; style=&quot;box-sizing: border-box ; margin-top: 0px ; margin-bottom: 16px ; padding-left: 2em ; color: rgb(51 , 51 , 51) ; font-family: , &amp;#34;blinkmacsystemfont&amp;#34; , &amp;#34;segoe ui&amp;#34; , &amp;#34;helvetica neue&amp;#34; , &amp;#34;helvetica&amp;#34; , &amp;#34;roboto&amp;#34; , &amp;#34;arial&amp;#34; , &amp;#34;pingfang tc&amp;#34; , &amp;#34;microsoft jhenghei&amp;#34; , , sans-serif , &amp;#34;apple color emoji&amp;#34; , &amp;#34;segoe ui emoji&amp;#34; , &amp;#34;segoe ui symbol&amp;#34; ; font-size: 16px ; letter-spacing: 0.35px ; background-color: rgb(255 , 255 , 255)&quot;&gt;&lt;li class=&quot;&quot; style=&quot;box-sizing: border-box ; padding-top: 0.25em&quot;&gt;&lt;span style=&quot;box-sizing: border-box&quot;&gt;判斷回合結束及記分（玩家選擇⾦礦卡）&lt;/span&gt;&lt;/li&gt;&lt;/ul&gt;" style="text;html=1;strokeColor=none;fillColor=none;align=left;verticalAlign=middle;whiteSpace=wrap;rounded=0;" parent="1" vertex="1">
          <mxGeometry x="23" y="10" width="330" height="30" as="geometry" />
        </mxCell>
        <mxCell id="VywLTkr9V0jCwjZuJMwq-18" value="是否為金礦" style="rhombus;whiteSpace=wrap;html=1;fillColor=#ffffc0;strokeColor=#ff0000;fontStyle=1" parent="1" vertex="1">
          <mxGeometry x="141.25" y="290" width="87.5" height="80" as="geometry" />
        </mxCell>
        <mxCell id="VywLTkr9V0jCwjZuJMwq-19" value="no" style="edgeStyle=orthogonalEdgeStyle;html=1;align=left;verticalAlign=bottom;endArrow=open;endSize=8;strokeColor=#ff0000;exitX=1;exitY=0.5;exitDx=0;exitDy=0;fontStyle=1" parent="1" source="VywLTkr9V0jCwjZuJMwq-18" edge="1">
          <mxGeometry x="-1" relative="1" as="geometry">
            <mxPoint x="273.75" y="330" as="targetPoint" />
            <mxPoint x="241.255" y="330" as="sourcePoint" />
            <Array as="points" />
          </mxGeometry>
        </mxCell>
        <mxCell id="VywLTkr9V0jCwjZuJMwq-20" value="yes" style="edgeStyle=orthogonalEdgeStyle;html=1;align=left;verticalAlign=top;endArrow=open;endSize=8;strokeColor=#ff0000;exitX=0.5;exitY=1;exitDx=0;exitDy=0;entryX=0.5;entryY=0;entryDx=0;entryDy=0;fontStyle=1" parent="1" source="VywLTkr9V0jCwjZuJMwq-18" target="VywLTkr9V0jCwjZuJMwq-41" edge="1">
          <mxGeometry x="-1" y="5" relative="1" as="geometry">
            <mxPoint x="185" y="440" as="targetPoint" />
            <Array as="points" />
            <mxPoint x="184.75" y="388.8571428571429" as="sourcePoint" />
            <mxPoint as="offset" />
          </mxGeometry>
        </mxCell>
        <mxCell id="VywLTkr9V0jCwjZuJMwq-24" value="所有玩家無手牌" style="rhombus;whiteSpace=wrap;html=1;fillColor=#ffffc0;strokeColor=#ff0000;fontStyle=1" parent="1" vertex="1">
          <mxGeometry x="273.75" y="290" width="106.25" height="80" as="geometry" />
        </mxCell>
        <mxCell id="VywLTkr9V0jCwjZuJMwq-26" value="yes" style="edgeStyle=orthogonalEdgeStyle;html=1;align=left;verticalAlign=top;endArrow=open;endSize=8;strokeColor=#ff0000;entryX=0.5;entryY=0;entryDx=0;entryDy=0;fontStyle=1" parent="1" source="VywLTkr9V0jCwjZuJMwq-24" target="VywLTkr9V0jCwjZuJMwq-43" edge="1">
          <mxGeometry x="-1" y="3" relative="1" as="geometry">
            <mxPoint x="319" y="440" as="targetPoint" />
            <mxPoint as="offset" />
          </mxGeometry>
        </mxCell>
        <mxCell id="VywLTkr9V0jCwjZuJMwq-29" value="no" style="edgeStyle=orthogonalEdgeStyle;html=1;align=left;verticalAlign=bottom;endArrow=open;endSize=8;strokeColor=#ff0000;fontStyle=1" parent="1" edge="1">
          <mxGeometry x="-1" relative="1" as="geometry">
            <mxPoint x="330" y="219.71000000000004" as="targetPoint" />
            <mxPoint x="230" y="219.71000000000004" as="sourcePoint" />
            <Array as="points">
              <mxPoint x="330" y="219.71000000000004" />
            </Array>
          </mxGeometry>
        </mxCell>
        <mxCell id="VywLTkr9V0jCwjZuJMwq-30" value="yes" style="edgeStyle=orthogonalEdgeStyle;html=1;align=left;verticalAlign=top;endArrow=open;endSize=8;strokeColor=#ff0000;exitX=0.5;exitY=1;exitDx=0;exitDy=0;fontStyle=1" parent="1" source="VywLTkr9V0jCwjZuJMwq-31" target="VywLTkr9V0jCwjZuJMwq-18" edge="1">
          <mxGeometry x="-1" y="5" relative="1" as="geometry">
            <mxPoint x="184.70999999999998" y="340" as="targetPoint" />
            <mxPoint x="184.70999999999998" y="280" as="sourcePoint" />
            <mxPoint as="offset" />
          </mxGeometry>
        </mxCell>
        <mxCell id="VywLTkr9V0jCwjZuJMwq-31" value="出牌合法?" style="rhombus;whiteSpace=wrap;html=1;fillColor=#ffffc0;strokeColor=#ff0000;fontStyle=1" parent="1" vertex="1">
          <mxGeometry x="140" y="180" width="90" height="80" as="geometry" />
        </mxCell>
        <mxCell id="8xSkgKxFmKDJl1FLE58u-7" style="edgeStyle=orthogonalEdgeStyle;rounded=0;orthogonalLoop=1;jettySize=auto;html=1;entryX=1;entryY=0.5;entryDx=0;entryDy=0;strokeColor=#FF0000;endArrow=open;endFill=0;fontStyle=1" parent="1" source="VywLTkr9V0jCwjZuJMwq-32" target="8xSkgKxFmKDJl1FLE58u-3" edge="1">
          <mxGeometry relative="1" as="geometry">
            <Array as="points">
              <mxPoint x="390" y="130" />
            </Array>
          </mxGeometry>
        </mxCell>
        <mxCell id="VywLTkr9V0jCwjZuJMwq-32" value="錯誤並恢復上一動" style="rounded=1;whiteSpace=wrap;html=1;arcSize=40;fontColor=#000000;fillColor=#ffffc0;strokeColor=#ff0000;fontStyle=1" parent="1" vertex="1">
          <mxGeometry x="330" y="200" width="120" height="40" as="geometry" />
        </mxCell>
        <mxCell id="VywLTkr9V0jCwjZuJMwq-40" value="" style="edgeStyle=orthogonalEdgeStyle;html=1;verticalAlign=bottom;endArrow=open;endSize=8;strokeColor=#ff0000;entryX=0.5;entryY=0;entryDx=0;entryDy=0;exitX=0.5;exitY=1;exitDx=0;exitDy=0;fontStyle=1" parent="1" source="VywLTkr9V0jCwjZuJMwq-43" target="VywLTkr9V0jCwjZuJMwq-51" edge="1">
          <mxGeometry relative="1" as="geometry">
            <mxPoint x="326.75" y="540" as="targetPoint" />
            <mxPoint x="326.75" y="480" as="sourcePoint" />
          </mxGeometry>
        </mxCell>
        <mxCell id="VywLTkr9V0jCwjZuJMwq-41" value="好矮人獲勝" style="rounded=1;whiteSpace=wrap;html=1;arcSize=40;fontColor=#000000;fillColor=#ffffc0;strokeColor=#ff0000;fontStyle=1" parent="1" vertex="1">
          <mxGeometry x="125" y="410" width="120" height="40" as="geometry" />
        </mxCell>
        <mxCell id="VywLTkr9V0jCwjZuJMwq-42" value="" style="edgeStyle=orthogonalEdgeStyle;html=1;verticalAlign=bottom;endArrow=open;endSize=8;strokeColor=#ff0000;fontStyle=1" parent="1" source="VywLTkr9V0jCwjZuJMwq-41" target="VywLTkr9V0jCwjZuJMwq-49" edge="1">
          <mxGeometry relative="1" as="geometry">
            <mxPoint x="185" y="500" as="targetPoint" />
          </mxGeometry>
        </mxCell>
        <mxCell id="VywLTkr9V0jCwjZuJMwq-43" value="壞矮人獲勝" style="rounded=1;whiteSpace=wrap;html=1;arcSize=40;fontColor=#000000;fillColor=#ffffc0;strokeColor=#ff0000;fontStyle=1" parent="1" vertex="1">
          <mxGeometry x="266.75" y="410" width="120" height="40" as="geometry" />
        </mxCell>
        <mxCell id="VywLTkr9V0jCwjZuJMwq-49" value="&lt;div&gt;&lt;span&gt;選取相應金塊卡&lt;/span&gt;&lt;/div&gt;&lt;div&gt;&lt;span&gt;(好矮人模式)&lt;/span&gt;&lt;/div&gt;" style="rounded=1;whiteSpace=wrap;html=1;arcSize=40;fontColor=#000000;fillColor=#ffffc0;strokeColor=#ff0000;fontStyle=1" parent="1" vertex="1">
          <mxGeometry x="125" y="480" width="120" height="40" as="geometry" />
        </mxCell>
        <mxCell id="VywLTkr9V0jCwjZuJMwq-50" value="" style="edgeStyle=orthogonalEdgeStyle;html=1;verticalAlign=bottom;endArrow=open;endSize=8;strokeColor=#ff0000;entryX=0.5;entryY=0;entryDx=0;entryDy=0;fontStyle=1" parent="1" source="VywLTkr9V0jCwjZuJMwq-49" target="VywLTkr9V0jCwjZuJMwq-55" edge="1">
          <mxGeometry relative="1" as="geometry">
            <mxPoint x="184.75" y="640" as="targetPoint" />
          </mxGeometry>
        </mxCell>
        <mxCell id="VywLTkr9V0jCwjZuJMwq-51" value="選取相應金塊卡&lt;br&gt;(壞矮人模式)" style="rounded=1;whiteSpace=wrap;html=1;arcSize=40;fontColor=#000000;fillColor=#ffffc0;strokeColor=#ff0000;fontStyle=1" parent="1" vertex="1">
          <mxGeometry x="267" y="480" width="120" height="40" as="geometry" />
        </mxCell>
        <mxCell id="VywLTkr9V0jCwjZuJMwq-52" value="" style="edgeStyle=orthogonalEdgeStyle;html=1;verticalAlign=bottom;endArrow=open;endSize=8;strokeColor=#ff0000;entryX=0.5;entryY=0;entryDx=0;entryDy=0;fontStyle=1" parent="1" source="VywLTkr9V0jCwjZuJMwq-51" target="VywLTkr9V0jCwjZuJMwq-60" edge="1">
          <mxGeometry relative="1" as="geometry">
            <mxPoint x="326.75" y="640" as="targetPoint" />
          </mxGeometry>
        </mxCell>
        <mxCell id="VywLTkr9V0jCwjZuJMwq-55" value="好矮人依逆時針抽金塊卡" style="rounded=1;whiteSpace=wrap;html=1;arcSize=40;fontColor=#000000;fillColor=#ffffc0;strokeColor=#ff0000;fontStyle=1" parent="1" vertex="1">
          <mxGeometry x="116.75" y="550" width="136" height="50" as="geometry" />
        </mxCell>
        <mxCell id="VywLTkr9V0jCwjZuJMwq-56" value="" style="edgeStyle=orthogonalEdgeStyle;html=1;verticalAlign=bottom;endArrow=open;endSize=8;strokeColor=#ff0000;entryX=0.5;entryY=0;entryDx=0;entryDy=0;rounded=0;fontStyle=1" parent="1" source="VywLTkr9V0jCwjZuJMwq-55" target="8xSkgKxFmKDJl1FLE58u-11" edge="1">
          <mxGeometry relative="1" as="geometry">
            <mxPoint x="185" y="770" as="targetPoint" />
            <Array as="points">
              <mxPoint x="185" y="620" />
              <mxPoint x="250" y="620" />
            </Array>
          </mxGeometry>
        </mxCell>
        <mxCell id="VywLTkr9V0jCwjZuJMwq-60" value="壞矮人抽取金塊卡" style="rounded=1;whiteSpace=wrap;html=1;arcSize=40;fontColor=#000000;fillColor=#ffffc0;strokeColor=#ff0000;fontStyle=1" parent="1" vertex="1">
          <mxGeometry x="266.75" y="550" width="120" height="50" as="geometry" />
        </mxCell>
        <mxCell id="VywLTkr9V0jCwjZuJMwq-61" value="" style="edgeStyle=orthogonalEdgeStyle;html=1;verticalAlign=bottom;endArrow=open;endSize=8;strokeColor=#ff0000;entryX=0.5;entryY=0;entryDx=0;entryDy=0;rounded=0;fontStyle=1" parent="1" source="VywLTkr9V0jCwjZuJMwq-60" target="8xSkgKxFmKDJl1FLE58u-11" edge="1">
          <mxGeometry relative="1" as="geometry">
            <mxPoint x="320" y="770" as="targetPoint" />
            <Array as="points">
              <mxPoint x="327" y="620" />
              <mxPoint x="250" y="620" />
            </Array>
          </mxGeometry>
        </mxCell>
        <mxCell id="VywLTkr9V0jCwjZuJMwq-68" value="回合==3" style="rhombus;whiteSpace=wrap;html=1;fillColor=#ffffc0;strokeColor=#ff0000;fontStyle=1" parent="1" vertex="1">
          <mxGeometry x="209.97" y="720" width="80" height="60" as="geometry" />
        </mxCell>
        <mxCell id="VywLTkr9V0jCwjZuJMwq-69" value="no" style="edgeStyle=orthogonalEdgeStyle;html=1;align=left;verticalAlign=bottom;endArrow=open;endSize=8;strokeColor=#ff0000;entryX=1;entryY=0.5;entryDx=0;entryDy=0;rounded=0;fontStyle=1" parent="1" source="VywLTkr9V0jCwjZuJMwq-68" target="8xSkgKxFmKDJl1FLE58u-3" edge="1">
          <mxGeometry x="-1" relative="1" as="geometry">
            <mxPoint x="540" y="520" as="targetPoint" />
            <Array as="points">
              <mxPoint x="480" y="750" />
              <mxPoint x="480" y="130" />
            </Array>
          </mxGeometry>
        </mxCell>
        <mxCell id="VywLTkr9V0jCwjZuJMwq-70" value="yes" style="edgeStyle=orthogonalEdgeStyle;html=1;align=left;verticalAlign=top;endArrow=open;endSize=8;strokeColor=#ff0000;entryX=0.5;entryY=0;entryDx=0;entryDy=0;fontStyle=1" parent="1" source="VywLTkr9V0jCwjZuJMwq-68" target="8xSkgKxFmKDJl1FLE58u-13" edge="1">
          <mxGeometry x="-1" relative="1" as="geometry">
            <mxPoint x="250" y="1010" as="targetPoint" />
            <mxPoint as="offset" />
          </mxGeometry>
        </mxCell>
        <mxCell id="8xSkgKxFmKDJl1FLE58u-6" style="edgeStyle=orthogonalEdgeStyle;rounded=0;orthogonalLoop=1;jettySize=auto;html=1;entryX=0.5;entryY=0;entryDx=0;entryDy=0;strokeColor=#FF0000;endArrow=open;endFill=0;fontStyle=1" parent="1" source="8xSkgKxFmKDJl1FLE58u-3" target="VywLTkr9V0jCwjZuJMwq-31" edge="1">
          <mxGeometry relative="1" as="geometry" />
        </mxCell>
        <mxCell id="8xSkgKxFmKDJl1FLE58u-3" value="出牌" style="rounded=1;whiteSpace=wrap;html=1;arcSize=40;fontColor=#000000;fillColor=#ffffc0;strokeColor=#ff0000;fontStyle=1" parent="1" vertex="1">
          <mxGeometry x="125" y="110" width="120" height="40" as="geometry" />
        </mxCell>
        <mxCell id="8xSkgKxFmKDJl1FLE58u-10" value="no" style="edgeStyle=orthogonalEdgeStyle;html=1;align=left;verticalAlign=bottom;endArrow=open;endSize=8;strokeColor=#ff0000;exitX=1;exitY=0.5;exitDx=0;exitDy=0;entryX=1;entryY=0.5;entryDx=0;entryDy=0;endFill=0;rounded=0;fontStyle=1" parent="1" source="VywLTkr9V0jCwjZuJMwq-24" target="8xSkgKxFmKDJl1FLE58u-3" edge="1">
          <mxGeometry x="-1" relative="1" as="geometry">
            <mxPoint x="426.25" y="379.66000000000014" as="targetPoint" />
            <mxPoint x="380" y="379.66000000000014" as="sourcePoint" />
            <Array as="points">
              <mxPoint x="480" y="330" />
              <mxPoint x="480" y="130" />
            </Array>
          </mxGeometry>
        </mxCell>
        <mxCell id="8xSkgKxFmKDJl1FLE58u-11" value="設定玩家分數" style="rounded=1;whiteSpace=wrap;html=1;arcSize=40;fontColor=#000000;fillColor=#ffffc0;strokeColor=#ff0000;fontStyle=1" parent="1" vertex="1">
          <mxGeometry x="189.97" y="650" width="120" height="40" as="geometry" />
        </mxCell>
        <mxCell id="8xSkgKxFmKDJl1FLE58u-12" value="" style="edgeStyle=orthogonalEdgeStyle;html=1;verticalAlign=bottom;endArrow=open;endSize=8;strokeColor=#ff0000;entryX=0.5;entryY=0;entryDx=0;entryDy=0;fontStyle=1" parent="1" source="8xSkgKxFmKDJl1FLE58u-11" target="VywLTkr9V0jCwjZuJMwq-68" edge="1">
          <mxGeometry relative="1" as="geometry">
            <mxPoint x="249.97000000000003" y="890" as="targetPoint" />
          </mxGeometry>
        </mxCell>
        <mxCell id="8xSkgKxFmKDJl1FLE58u-13" value="" style="ellipse;html=1;shape=endState;fillColor=#000000;strokeColor=#ff0000;fontStyle=1" parent="1" vertex="1">
          <mxGeometry x="234.97000000000003" y="830" width="30" height="30" as="geometry" />
        </mxCell>
        <mxCell id="8xSkgKxFmKDJl1FLE58u-15" value="" style="ellipse;html=1;shape=startState;fillColor=#000000;strokeColor=#ff0000;" parent="1" vertex="1">
          <mxGeometry x="170" y="40" width="30" height="30" as="geometry" />
        </mxCell>
        <mxCell id="8xSkgKxFmKDJl1FLE58u-16" value="" style="edgeStyle=orthogonalEdgeStyle;html=1;verticalAlign=bottom;endArrow=open;endSize=8;strokeColor=#ff0000;entryX=0.5;entryY=0;entryDx=0;entryDy=0;exitX=0.486;exitY=0.87;exitDx=0;exitDy=0;exitPerimeter=0;fontStyle=1" parent="1" source="8xSkgKxFmKDJl1FLE58u-15" target="8xSkgKxFmKDJl1FLE58u-3" edge="1">
          <mxGeometry relative="1" as="geometry">
            <mxPoint x="185" y="70" as="targetPoint" />
          </mxGeometry>
        </mxCell>
      </root>
    </mxGraphModel>
  </diagram>
  <diagram id="RfCjmL1f1gF0nSPku6cr" name="(d) Architecture">
    <mxGraphModel dx="2233" dy="757" grid="1" gridSize="10" guides="1" tooltips="1" connect="1" arrows="1" fold="1" page="1" pageScale="1" pageWidth="827" pageHeight="1169" math="0" shadow="0">
      <root>
        <mxCell id="OqjL8Vs9khg4ijREQCGS-0" />
        <mxCell id="OqjL8Vs9khg4ijREQCGS-1" parent="OqjL8Vs9khg4ijREQCGS-0" />
        <mxCell id="M7nv09tpcVa0D9WAmtHn-8" value="Client" style="swimlane;strokeColor=#666666;startSize=23;fillColor=#f5f5f5;fontColor=#333333;" parent="OqjL8Vs9khg4ijREQCGS-1" vertex="1">
          <mxGeometry x="-670" y="180" width="160" height="200" as="geometry" />
        </mxCell>
        <mxCell id="ZtkXzeoIDLEyq5TcyB0M-0" value="Mobile Browser" style="swimlane;fontStyle=0;childLayout=stackLayout;horizontal=1;startSize=26;fillColor=#d5e8d4;horizontalStack=0;resizeParent=1;resizeParentMax=0;resizeLast=0;collapsible=1;marginBottom=0;dashed=1;strokeColor=#82b366;" parent="M7nv09tpcVa0D9WAmtHn-8" vertex="1">
          <mxGeometry x="15" y="60" width="130" height="52" as="geometry" />
        </mxCell>
        <mxCell id="ZtkXzeoIDLEyq5TcyB0M-1" value="React" style="text;strokeColor=none;fillColor=none;align=left;verticalAlign=top;spacingLeft=4;spacingRight=4;overflow=hidden;rotatable=0;points=[[0,0.5],[1,0.5]];portConstraint=eastwest;" parent="ZtkXzeoIDLEyq5TcyB0M-0" vertex="1">
          <mxGeometry y="26" width="130" height="26" as="geometry" />
        </mxCell>
        <mxCell id="M7nv09tpcVa0D9WAmtHn-9" value="Server" style="swimlane;fillColor=#f5f5f5;strokeColor=#666666;fontColor=#333333;" parent="OqjL8Vs9khg4ijREQCGS-1" vertex="1">
          <mxGeometry x="-400" y="180" width="200" height="200" as="geometry" />
        </mxCell>
        <mxCell id="f8Wj52m2PNsQu3i7oWR6-0" value="Web Server" style="swimlane;fontStyle=0;childLayout=stackLayout;horizontal=1;startSize=26;fillColor=#dae8fc;horizontalStack=0;resizeParent=1;resizeParentMax=0;resizeLast=0;collapsible=1;marginBottom=0;dashed=1;strokeColor=#66B2FF;" parent="M7nv09tpcVa0D9WAmtHn-9" vertex="1">
          <mxGeometry x="30" y="42" width="160" height="78" as="geometry" />
        </mxCell>
        <mxCell id="f8Wj52m2PNsQu3i7oWR6-1" value="Python django" style="text;strokeColor=none;fillColor=none;align=left;verticalAlign=top;spacingLeft=4;spacingRight=4;overflow=hidden;rotatable=0;points=[[0,0.5],[1,0.5]];portConstraint=eastwest;" parent="f8Wj52m2PNsQu3i7oWR6-0" vertex="1">
          <mxGeometry y="26" width="160" height="26" as="geometry" />
        </mxCell>
        <mxCell id="f8Wj52m2PNsQu3i7oWR6-2" value="Channel" style="text;strokeColor=none;fillColor=none;align=left;verticalAlign=top;spacingLeft=4;spacingRight=4;overflow=hidden;rotatable=0;points=[[0,0.5],[1,0.5]];portConstraint=eastwest;" parent="f8Wj52m2PNsQu3i7oWR6-0" vertex="1">
          <mxGeometry y="52" width="160" height="26" as="geometry" />
        </mxCell>
        <mxCell id="y_CqQnOUgc3NbltJxtEA-7" value="User" style="whiteSpace=wrap;html=1;aspect=fixed;" parent="OqjL8Vs9khg4ijREQCGS-1" vertex="1">
          <mxGeometry x="-810" y="240" width="80" height="80" as="geometry" />
        </mxCell>
        <mxCell id="Dxlqj37U32hgTSQOUlo2-6" value="DataBase" style="swimlane;fillColor=#e1d5e7;strokeColor=#9673a6;" parent="OqjL8Vs9khg4ijREQCGS-1" vertex="1">
          <mxGeometry x="-116" y="150" width="180" height="160" as="geometry" />
        </mxCell>
        <mxCell id="L9K2-cgNkOWoxmYsnG8w-0" value="SQL" style="strokeWidth=2;html=1;shape=mxgraph.flowchart.database;whiteSpace=wrap;dashed=1;fillColor=#ffe6cc;strokeColor=#d79b00;" parent="Dxlqj37U32hgTSQOUlo2-6" vertex="1">
          <mxGeometry x="50" y="40" width="80" height="80" as="geometry" />
        </mxCell>
        <mxCell id="L9K2-cgNkOWoxmYsnG8w-22" value="Redis" style="text;html=1;strokeColor=none;fillColor=none;align=center;verticalAlign=middle;whiteSpace=wrap;rounded=0;dashed=1;" parent="OqjL8Vs9khg4ijREQCGS-1" vertex="1">
          <mxGeometry x="-180" y="250" width="40" height="20" as="geometry" />
        </mxCell>
        <mxCell id="L9K2-cgNkOWoxmYsnG8w-24" value="" style="endArrow=classic;startArrow=classic;html=1;dashed=1;strokeWidth=3;fillColor=#f5f5f5;strokeColor=#666666;" parent="OqjL8Vs9khg4ijREQCGS-1" edge="1">
          <mxGeometry width="50" height="50" relative="1" as="geometry">
            <mxPoint x="-730" y="279.5" as="sourcePoint" />
            <mxPoint x="-670" y="279.5" as="targetPoint" />
            <Array as="points">
              <mxPoint x="-700" y="279.5" />
            </Array>
          </mxGeometry>
        </mxCell>
        <mxCell id="QoffFLH7WYeCnR6vYdTW-1" value="" style="endArrow=classic;startArrow=none;html=1;dashed=1;strokeWidth=3;fillColor=#f5f5f5;strokeColor=#666666;" parent="OqjL8Vs9khg4ijREQCGS-1" source="QoffFLH7WYeCnR6vYdTW-3" edge="1">
          <mxGeometry width="50" height="50" relative="1" as="geometry">
            <mxPoint x="-200" y="230" as="sourcePoint" />
            <mxPoint x="-120" y="230" as="targetPoint" />
            <Array as="points" />
          </mxGeometry>
        </mxCell>
        <mxCell id="QoffFLH7WYeCnR6vYdTW-5" value="" style="endArrow=none;startArrow=classic;html=1;dashed=1;strokeWidth=3;fillColor=#f5f5f5;strokeColor=#666666;" parent="OqjL8Vs9khg4ijREQCGS-1" target="QoffFLH7WYeCnR6vYdTW-3" edge="1">
          <mxGeometry width="50" height="50" relative="1" as="geometry">
            <mxPoint x="-200" y="230" as="sourcePoint" />
            <mxPoint x="-120" y="230" as="targetPoint" />
            <Array as="points">
              <mxPoint x="-160" y="230" />
            </Array>
          </mxGeometry>
        </mxCell>
        <mxCell id="QoffFLH7WYeCnR6vYdTW-3" value="" style="strokeWidth=2;html=1;shape=mxgraph.flowchart.database;whiteSpace=wrap;fillColor=#fff2cc;strokeColor=#d6b656;shadow=0;" parent="OqjL8Vs9khg4ijREQCGS-1" vertex="1">
          <mxGeometry x="-175" y="210" width="30" height="40" as="geometry" />
        </mxCell>
        <mxCell id="QoffFLH7WYeCnR6vYdTW-9" value="Nginx" style="text;html=1;strokeColor=none;fillColor=none;align=center;verticalAlign=middle;whiteSpace=wrap;rounded=0;shadow=0;" parent="OqjL8Vs9khg4ijREQCGS-1" vertex="1">
          <mxGeometry x="-420" y="300" width="40" height="20" as="geometry" />
        </mxCell>
        <mxCell id="ZtkXzeoIDLEyq5TcyB0M-4" value="Client&lt;br&gt;(Browser)" style="rounded=0;whiteSpace=wrap;html=1;shadow=0;align=center;" parent="OqjL8Vs9khg4ijREQCGS-1" vertex="1">
          <mxGeometry x="-805" y="525" width="120" height="60" as="geometry" />
        </mxCell>
        <mxCell id="ZtkXzeoIDLEyq5TcyB0M-5" value="find file" style="rounded=0;whiteSpace=wrap;html=1;shadow=0;align=center;" parent="OqjL8Vs9khg4ijREQCGS-1" vertex="1">
          <mxGeometry x="-640" y="465" width="120" height="60" as="geometry" />
        </mxCell>
        <mxCell id="ZtkXzeoIDLEyq5TcyB0M-6" value="request-response cycle:" style="text;html=1;strokeColor=none;fillColor=none;align=center;verticalAlign=middle;whiteSpace=wrap;rounded=0;shadow=0;" parent="OqjL8Vs9khg4ijREQCGS-1" vertex="1">
          <mxGeometry x="-810" y="410" width="130" height="20" as="geometry" />
        </mxCell>
        <mxCell id="ZtkXzeoIDLEyq5TcyB0M-7" value="Architecture diagram:" style="text;html=1;strokeColor=none;fillColor=none;align=center;verticalAlign=middle;whiteSpace=wrap;rounded=0;shadow=0;" parent="OqjL8Vs9khg4ijREQCGS-1" vertex="1">
          <mxGeometry x="-820" y="110" width="130" height="20" as="geometry" />
        </mxCell>
        <mxCell id="ZtkXzeoIDLEyq5TcyB0M-8" value="" style="endArrow=none;dashed=1;html=1;dashPattern=1 3;strokeWidth=2;startArrow=none;" parent="OqjL8Vs9khg4ijREQCGS-1" source="ZtkXzeoIDLEyq5TcyB0M-10" edge="1">
          <mxGeometry width="50" height="50" relative="1" as="geometry">
            <mxPoint x="-660" y="450" as="sourcePoint" />
            <mxPoint x="-660" y="450" as="targetPoint" />
            <Array as="points">
              <mxPoint x="-490" y="450" />
              <mxPoint x="-490" y="550" />
              <mxPoint x="-330" y="550" />
              <mxPoint x="-330" y="680" />
              <mxPoint x="-540" y="680" />
              <mxPoint x="-660" y="680" />
            </Array>
          </mxGeometry>
        </mxCell>
        <mxCell id="ZtkXzeoIDLEyq5TcyB0M-9" value="HTML" style="rounded=0;whiteSpace=wrap;html=1;shadow=0;align=center;" parent="OqjL8Vs9khg4ijREQCGS-1" vertex="1">
          <mxGeometry x="-640" y="590" width="120" height="60" as="geometry" />
        </mxCell>
        <mxCell id="ZtkXzeoIDLEyq5TcyB0M-10" value="Nginx" style="text;html=1;strokeColor=none;fillColor=none;align=center;verticalAlign=middle;whiteSpace=wrap;rounded=0;shadow=0;fontSize=15;" parent="OqjL8Vs9khg4ijREQCGS-1" vertex="1">
          <mxGeometry x="-600" y="440" width="40" height="20" as="geometry" />
        </mxCell>
        <mxCell id="ZtkXzeoIDLEyq5TcyB0M-11" value="" style="endArrow=none;dashed=1;html=1;dashPattern=1 3;strokeWidth=2;" parent="OqjL8Vs9khg4ijREQCGS-1" target="ZtkXzeoIDLEyq5TcyB0M-10" edge="1">
          <mxGeometry width="50" height="50" relative="1" as="geometry">
            <mxPoint x="-660" y="450" as="sourcePoint" />
            <mxPoint x="-660" y="450" as="targetPoint" />
            <Array as="points" />
          </mxGeometry>
        </mxCell>
        <mxCell id="ZtkXzeoIDLEyq5TcyB0M-12" value="" style="endArrow=classic;html=1;strokeWidth=3;" parent="OqjL8Vs9khg4ijREQCGS-1" edge="1">
          <mxGeometry width="50" height="50" relative="1" as="geometry">
            <mxPoint x="-685" y="525" as="sourcePoint" />
            <mxPoint x="-640" y="490" as="targetPoint" />
            <Array as="points" />
          </mxGeometry>
        </mxCell>
        <mxCell id="ZtkXzeoIDLEyq5TcyB0M-13" value="" style="endArrow=classic;html=1;strokeWidth=3;entryX=1;entryY=1;entryDx=0;entryDy=0;exitX=0;exitY=0.5;exitDx=0;exitDy=0;" parent="OqjL8Vs9khg4ijREQCGS-1" source="ZtkXzeoIDLEyq5TcyB0M-9" target="ZtkXzeoIDLEyq5TcyB0M-4" edge="1">
          <mxGeometry width="50" height="50" relative="1" as="geometry">
            <mxPoint x="-580" y="610" as="sourcePoint" />
            <mxPoint x="-530" y="560" as="targetPoint" />
          </mxGeometry>
        </mxCell>
        <mxCell id="ZtkXzeoIDLEyq5TcyB0M-14" value="process PHP" style="rounded=0;whiteSpace=wrap;html=1;shadow=0;align=center;" parent="OqjL8Vs9khg4ijREQCGS-1" vertex="1">
          <mxGeometry x="-473" y="590" width="120" height="60" as="geometry" />
        </mxCell>
        <mxCell id="QoffFLH7WYeCnR6vYdTW-6" value="" style="rounded=0;whiteSpace=wrap;html=1;shadow=0;fillColor=#d5e8d4;strokeColor=#82b366;" parent="OqjL8Vs9khg4ijREQCGS-1" vertex="1">
          <mxGeometry x="-420" y="260" width="40" height="40" as="geometry" />
        </mxCell>
        <mxCell id="ZtkXzeoIDLEyq5TcyB0M-15" value="" style="endArrow=classic;startArrow=classic;html=1;fontSize=15;strokeWidth=3;entryX=0;entryY=0.5;entryDx=0;entryDy=0;exitX=1;exitY=0.5;exitDx=0;exitDy=0;dashed=1;fillColor=#f5f5f5;strokeColor=#666666;" parent="OqjL8Vs9khg4ijREQCGS-1" source="M7nv09tpcVa0D9WAmtHn-8" target="QoffFLH7WYeCnR6vYdTW-6" edge="1">
          <mxGeometry width="50" height="50" relative="1" as="geometry">
            <mxPoint x="-510" y="290" as="sourcePoint" />
            <mxPoint x="-460" y="240" as="targetPoint" />
          </mxGeometry>
        </mxCell>
        <mxCell id="ZtkXzeoIDLEyq5TcyB0M-16" value="&lt;font style=&quot;font-size: 12px&quot;&gt;Setting.php&lt;/font&gt;" style="rounded=0;whiteSpace=wrap;html=1;shadow=0;fontSize=15;align=center;fillColor=#d5e8d4;strokeColor=#82b366;" parent="OqjL8Vs9khg4ijREQCGS-1" vertex="1">
          <mxGeometry x="-473" y="465" width="120" height="60" as="geometry" />
        </mxCell>
        <mxCell id="ZtkXzeoIDLEyq5TcyB0M-17" value="" style="endArrow=classic;html=1;fontSize=15;strokeWidth=3;entryX=0;entryY=0.5;entryDx=0;entryDy=0;exitX=1;exitY=0.5;exitDx=0;exitDy=0;" parent="OqjL8Vs9khg4ijREQCGS-1" source="ZtkXzeoIDLEyq5TcyB0M-5" target="ZtkXzeoIDLEyq5TcyB0M-16" edge="1">
          <mxGeometry width="50" height="50" relative="1" as="geometry">
            <mxPoint x="-580" y="610" as="sourcePoint" />
            <mxPoint x="-530" y="560" as="targetPoint" />
          </mxGeometry>
        </mxCell>
        <mxCell id="ZtkXzeoIDLEyq5TcyB0M-18" value="" style="endArrow=classic;html=1;fontSize=15;strokeWidth=3;entryX=0.5;entryY=0;entryDx=0;entryDy=0;exitX=0.5;exitY=1;exitDx=0;exitDy=0;" parent="OqjL8Vs9khg4ijREQCGS-1" source="ZtkXzeoIDLEyq5TcyB0M-16" target="ZtkXzeoIDLEyq5TcyB0M-14" edge="1">
          <mxGeometry width="50" height="50" relative="1" as="geometry">
            <mxPoint x="-580" y="610" as="sourcePoint" />
            <mxPoint x="-530" y="560" as="targetPoint" />
          </mxGeometry>
        </mxCell>
        <mxCell id="ZtkXzeoIDLEyq5TcyB0M-19" value="" style="endArrow=classic;html=1;fontSize=15;strokeWidth=3;exitX=0;exitY=0.5;exitDx=0;exitDy=0;entryX=1;entryY=0.5;entryDx=0;entryDy=0;" parent="OqjL8Vs9khg4ijREQCGS-1" source="ZtkXzeoIDLEyq5TcyB0M-14" target="ZtkXzeoIDLEyq5TcyB0M-9" edge="1">
          <mxGeometry width="50" height="50" relative="1" as="geometry">
            <mxPoint x="-580" y="610" as="sourcePoint" />
            <mxPoint x="-530" y="560" as="targetPoint" />
          </mxGeometry>
        </mxCell>
        <mxCell id="ZtkXzeoIDLEyq5TcyB0M-20" value="" style="endArrow=classic;startArrow=classic;html=1;fontSize=15;strokeWidth=3;" parent="OqjL8Vs9khg4ijREQCGS-1" edge="1">
          <mxGeometry width="50" height="50" relative="1" as="geometry">
            <mxPoint x="-353" y="620" as="sourcePoint" />
            <mxPoint x="-290" y="620" as="targetPoint" />
          </mxGeometry>
        </mxCell>
        <mxCell id="ZtkXzeoIDLEyq5TcyB0M-21" value="" style="shape=datastore;whiteSpace=wrap;html=1;shadow=0;fontSize=15;align=center;" parent="OqjL8Vs9khg4ijREQCGS-1" vertex="1">
          <mxGeometry x="-290" y="590" width="60" height="60" as="geometry" />
        </mxCell>
        <mxCell id="ZtkXzeoIDLEyq5TcyB0M-22" value="&lt;font style=&quot;font-size: 11px&quot;&gt;DataBase&lt;/font&gt;" style="text;html=1;strokeColor=none;fillColor=none;align=center;verticalAlign=middle;whiteSpace=wrap;rounded=0;shadow=0;fontSize=15;" parent="OqjL8Vs9khg4ijREQCGS-1" vertex="1">
          <mxGeometry x="-295" y="660" width="70" height="20" as="geometry" />
        </mxCell>
      </root>
    </mxGraphModel>
  </diagram>
  <diagram id="RdfRh1hJuEImfYDU-dCJ" name="(e) DataStorage">
    <mxGraphModel dx="1182" dy="732" grid="1" gridSize="10" guides="1" tooltips="1" connect="1" arrows="1" fold="1" page="1" pageScale="1" pageWidth="827" pageHeight="1169" math="0" shadow="0">
      <root>
        <mxCell id="qKE0YcgYfCwPGhOpZVWV-0" />
        <mxCell id="qKE0YcgYfCwPGhOpZVWV-1" parent="qKE0YcgYfCwPGhOpZVWV-0" />
      </root>
    </mxGraphModel>
  </diagram>
  <diagram id="1g4rJXhdjwt0iOM2Qjtu" name="(g) Class">
    <mxGraphModel dx="1038" dy="548" grid="1" gridSize="10" guides="1" tooltips="1" connect="1" arrows="1" fold="1" page="1" pageScale="1" pageWidth="827" pageHeight="1169" math="0" shadow="0">
      <root>
        <mxCell id="Z9xx9OWvTc2MJX5FuLhZ-0" />
        <mxCell id="Z9xx9OWvTc2MJX5FuLhZ-1" parent="Z9xx9OWvTc2MJX5FuLhZ-0" />
        <mxCell id="B3RsMr9qxGWXzGG_hSZn-0" value="Game_Controller" style="swimlane;fontStyle=1;align=center;verticalAlign=top;childLayout=stackLayout;horizontal=1;startSize=26;horizontalStack=0;resizeParent=1;resizeParentMax=0;resizeLast=0;collapsible=1;marginBottom=0;" parent="Z9xx9OWvTc2MJX5FuLhZ-1" vertex="1">
          <mxGeometry x="360" y="160" width="250" height="250" as="geometry" />
        </mxCell>
        <mxCell id="B3RsMr9qxGWXzGG_hSZn-1" value="- player_list: Player[3..10]&#xa;- round: Int&#xa;- game_state: State&#xa;- card_pool: Card[0..71]&#xa;- fold_deck: Card[0..71]&#xa;- board: Road[5][9]" style="text;strokeColor=none;fillColor=none;align=left;verticalAlign=top;spacingLeft=4;spacingRight=4;overflow=hidden;rotatable=0;points=[[0,0.5],[1,0.5]];portConstraint=eastwest;" parent="B3RsMr9qxGWXzGG_hSZn-0" vertex="1">
          <mxGeometry y="26" width="250" height="94" as="geometry" />
        </mxCell>
        <mxCell id="B3RsMr9qxGWXzGG_hSZn-2" value="" style="line;strokeWidth=1;fillColor=none;align=left;verticalAlign=middle;spacingTop=-1;spacingLeft=3;spacingRight=3;rotatable=0;labelPosition=right;points=[];portConstraint=eastwest;" parent="B3RsMr9qxGWXzGG_hSZn-0" vertex="1">
          <mxGeometry y="120" width="250" height="8" as="geometry" />
        </mxCell>
        <mxCell id="B3RsMr9qxGWXzGG_hSZn-3" value="+ state_control(): Void&#xa;+ reset_board(board): Void&#xa;+ set_player_role(List[Player]): Void&#xa;+ set_player_state(Player): Void&#xa;+ check_legality(Card, Card): Bool&#xa;+ deal_card(State, List[Player]): Void&#xa;+ calc_rank(List[Player]): Void&#xa;+ visualization(): Void" style="text;strokeColor=none;fillColor=none;align=left;verticalAlign=top;spacingLeft=4;spacingRight=4;overflow=hidden;rotatable=0;points=[[0,0.5],[1,0.5]];portConstraint=eastwest;" parent="B3RsMr9qxGWXzGG_hSZn-0" vertex="1">
          <mxGeometry y="128" width="250" height="122" as="geometry" />
        </mxCell>
        <mxCell id="B3RsMr9qxGWXzGG_hSZn-5" value="Player" style="swimlane;fontStyle=1;align=center;verticalAlign=top;childLayout=stackLayout;horizontal=1;startSize=26;horizontalStack=0;resizeParent=1;resizeParentMax=0;resizeLast=0;collapsible=1;marginBottom=0;" parent="Z9xx9OWvTc2MJX5FuLhZ-1" vertex="1">
          <mxGeometry x="640" y="160" width="160" height="160" as="geometry" />
        </mxCell>
        <mxCell id="B3RsMr9qxGWXzGG_hSZn-6" value="- role: identity&#xa;- hand_cards: Card[0..6]&#xa;- action_state: Action[0..3]&#xa;- point: Int&#xa;+ num_hand_cards: Int" style="text;strokeColor=none;fillColor=none;align=left;verticalAlign=top;spacingLeft=4;spacingRight=4;overflow=hidden;rotatable=0;points=[[0,0.5],[1,0.5]];portConstraint=eastwest;" parent="B3RsMr9qxGWXzGG_hSZn-5" vertex="1">
          <mxGeometry y="26" width="160" height="74" as="geometry" />
        </mxCell>
        <mxCell id="B3RsMr9qxGWXzGG_hSZn-7" value="" style="line;strokeWidth=1;fillColor=none;align=left;verticalAlign=middle;spacingTop=-1;spacingLeft=3;spacingRight=3;rotatable=0;labelPosition=right;points=[];portConstraint=eastwest;" parent="B3RsMr9qxGWXzGG_hSZn-5" vertex="1">
          <mxGeometry y="100" width="160" height="8" as="geometry" />
        </mxCell>
        <mxCell id="B3RsMr9qxGWXzGG_hSZn-8" value="+ play_card(Card): Void&#xa;+ fold_card(Card): Void&#xa;+ select_gold(Card): Void" style="text;strokeColor=none;fillColor=none;align=left;verticalAlign=top;spacingLeft=4;spacingRight=4;overflow=hidden;rotatable=0;points=[[0,0.5],[1,0.5]];portConstraint=eastwest;" parent="B3RsMr9qxGWXzGG_hSZn-5" vertex="1">
          <mxGeometry y="108" width="160" height="52" as="geometry" />
        </mxCell>
        <mxCell id="B3RsMr9qxGWXzGG_hSZn-13" value="Card" style="swimlane;fontStyle=1;align=center;verticalAlign=top;childLayout=stackLayout;horizontal=1;startSize=26;horizontalStack=0;resizeParent=1;resizeParentMax=0;resizeLast=0;collapsible=1;marginBottom=0;" parent="Z9xx9OWvTc2MJX5FuLhZ-1" vertex="1">
          <mxGeometry x="400" y="470" width="160" height="34" as="geometry" />
        </mxCell>
        <mxCell id="B3RsMr9qxGWXzGG_hSZn-15" value="" style="line;strokeWidth=1;fillColor=none;align=left;verticalAlign=middle;spacingTop=-1;spacingLeft=3;spacingRight=3;rotatable=0;labelPosition=right;points=[];portConstraint=eastwest;" parent="B3RsMr9qxGWXzGG_hSZn-13" vertex="1">
          <mxGeometry y="26" width="160" height="8" as="geometry" />
        </mxCell>
        <mxCell id="B3RsMr9qxGWXzGG_hSZn-17" value="room_controller" style="swimlane;fontStyle=1;align=center;verticalAlign=top;childLayout=stackLayout;horizontal=1;startSize=26;horizontalStack=0;resizeParent=1;resizeParentMax=0;resizeLast=0;collapsible=1;marginBottom=0;" parent="Z9xx9OWvTc2MJX5FuLhZ-1" vertex="1">
          <mxGeometry x="80" y="300" width="160" height="110" as="geometry" />
        </mxCell>
        <mxCell id="B3RsMr9qxGWXzGG_hSZn-18" value="- room_list: Room[*]" style="text;strokeColor=none;fillColor=none;align=left;verticalAlign=top;spacingLeft=4;spacingRight=4;overflow=hidden;rotatable=0;points=[[0,0.5],[1,0.5]];portConstraint=eastwest;" parent="B3RsMr9qxGWXzGG_hSZn-17" vertex="1">
          <mxGeometry y="26" width="160" height="26" as="geometry" />
        </mxCell>
        <mxCell id="B3RsMr9qxGWXzGG_hSZn-19" value="" style="line;strokeWidth=1;fillColor=none;align=left;verticalAlign=middle;spacingTop=-1;spacingLeft=3;spacingRight=3;rotatable=0;labelPosition=right;points=[];portConstraint=eastwest;" parent="B3RsMr9qxGWXzGG_hSZn-17" vertex="1">
          <mxGeometry y="52" width="160" height="8" as="geometry" />
        </mxCell>
        <mxCell id="B3RsMr9qxGWXzGG_hSZn-20" value="+ create_room(): Void&#xa;+ del_room(): Void&#xa;+ check_state(): Void" style="text;strokeColor=none;fillColor=none;align=left;verticalAlign=top;spacingLeft=4;spacingRight=4;overflow=hidden;rotatable=0;points=[[0,0.5],[1,0.5]];portConstraint=eastwest;" parent="B3RsMr9qxGWXzGG_hSZn-17" vertex="1">
          <mxGeometry y="60" width="160" height="50" as="geometry" />
        </mxCell>
        <mxCell id="B3RsMr9qxGWXzGG_hSZn-26" style="rounded=0;orthogonalLoop=1;jettySize=auto;html=1;entryX=0.5;entryY=1;entryDx=0;entryDy=0;endArrow=block;endFill=0;exitX=0.5;exitY=0;exitDx=0;exitDy=0;" parent="Z9xx9OWvTc2MJX5FuLhZ-1" source="8rGICvzAIuumgDk9fDHV-4" target="B3RsMr9qxGWXzGG_hSZn-13" edge="1">
          <mxGeometry relative="1" as="geometry">
            <mxPoint x="480" y="600" as="sourcePoint" />
          </mxGeometry>
        </mxCell>
        <mxCell id="B3RsMr9qxGWXzGG_hSZn-48" style="rounded=0;orthogonalLoop=1;jettySize=auto;html=1;endArrow=block;endFill=0;entryX=0.5;entryY=1;entryDx=0;entryDy=0;exitX=0.5;exitY=0;exitDx=0;exitDy=0;" parent="Z9xx9OWvTc2MJX5FuLhZ-1" source="8rGICvzAIuumgDk9fDHV-0" target="B3RsMr9qxGWXzGG_hSZn-13" edge="1">
          <mxGeometry relative="1" as="geometry">
            <mxPoint x="500" y="480" as="targetPoint" />
            <mxPoint x="670" y="600" as="sourcePoint" />
          </mxGeometry>
        </mxCell>
        <mxCell id="B3RsMr9qxGWXzGG_hSZn-47" style="rounded=0;orthogonalLoop=1;jettySize=auto;html=1;entryX=0.5;entryY=1;entryDx=0;entryDy=0;endArrow=block;endFill=0;exitX=0.5;exitY=0;exitDx=0;exitDy=0;" parent="Z9xx9OWvTc2MJX5FuLhZ-1" source="B3RsMr9qxGWXzGG_hSZn-52" target="B3RsMr9qxGWXzGG_hSZn-13" edge="1">
          <mxGeometry relative="1" as="geometry">
            <mxPoint x="349.7142857142858" y="600" as="sourcePoint" />
          </mxGeometry>
        </mxCell>
        <mxCell id="B3RsMr9qxGWXzGG_hSZn-37" value="&lt;&lt;enumerate&gt;&gt;&#xa;Action_Type" style="swimlane;fontStyle=1;align=center;verticalAlign=top;childLayout=stackLayout;horizontal=1;startSize=40;horizontalStack=0;resizeParent=1;resizeParentMax=0;resizeLast=0;collapsible=1;marginBottom=0;" parent="Z9xx9OWvTc2MJX5FuLhZ-1" vertex="1">
          <mxGeometry x="250" y="20" width="160" height="128" as="geometry" />
        </mxCell>
        <mxCell id="B3RsMr9qxGWXzGG_hSZn-38" value="miner_lamp: Int=0&#xa;minecart: Int=1&#xa;mine_pick: Int=2&#xa;rocks: Int=3&#xa;map: Int=4" style="text;strokeColor=none;fillColor=none;align=left;verticalAlign=top;spacingLeft=4;spacingRight=4;overflow=hidden;rotatable=0;points=[[0,0.5],[1,0.5]];portConstraint=eastwest;" parent="B3RsMr9qxGWXzGG_hSZn-37" vertex="1">
          <mxGeometry y="40" width="160" height="80" as="geometry" />
        </mxCell>
        <mxCell id="B3RsMr9qxGWXzGG_hSZn-39" value="" style="line;strokeWidth=1;fillColor=none;align=left;verticalAlign=middle;spacingTop=-1;spacingLeft=3;spacingRight=3;rotatable=0;labelPosition=right;points=[];portConstraint=eastwest;" parent="B3RsMr9qxGWXzGG_hSZn-37" vertex="1">
          <mxGeometry y="120" width="160" height="8" as="geometry" />
        </mxCell>
        <mxCell id="B3RsMr9qxGWXzGG_hSZn-41" value="&lt;&lt;enumerate&gt;&gt;&#xa;State" style="swimlane;fontStyle=1;align=center;verticalAlign=top;childLayout=stackLayout;horizontal=1;startSize=40;horizontalStack=0;resizeParent=1;resizeParentMax=0;resizeLast=0;collapsible=1;marginBottom=0;" parent="Z9xx9OWvTc2MJX5FuLhZ-1" vertex="1">
          <mxGeometry x="80" y="20" width="160" height="108" as="geometry" />
        </mxCell>
        <mxCell id="B3RsMr9qxGWXzGG_hSZn-42" value="reset: Int=0&#xa;play: Int=1&#xa;game_point: Int=2&#xa;set_point: Int=3" style="text;strokeColor=none;fillColor=none;align=left;verticalAlign=top;spacingLeft=4;spacingRight=4;overflow=hidden;rotatable=0;points=[[0,0.5],[1,0.5]];portConstraint=eastwest;" parent="B3RsMr9qxGWXzGG_hSZn-41" vertex="1">
          <mxGeometry y="40" width="160" height="60" as="geometry" />
        </mxCell>
        <mxCell id="B3RsMr9qxGWXzGG_hSZn-43" value="" style="line;strokeWidth=1;fillColor=none;align=left;verticalAlign=middle;spacingTop=-1;spacingLeft=3;spacingRight=3;rotatable=0;labelPosition=right;points=[];portConstraint=eastwest;" parent="B3RsMr9qxGWXzGG_hSZn-41" vertex="1">
          <mxGeometry y="100" width="160" height="8" as="geometry" />
        </mxCell>
        <mxCell id="B3RsMr9qxGWXzGG_hSZn-44" value="&lt;&lt;enumerate&gt;&gt;&#xa;Road_Type" style="swimlane;fontStyle=1;align=center;verticalAlign=top;childLayout=stackLayout;horizontal=1;startSize=40;horizontalStack=0;resizeParent=1;resizeParentMax=0;resizeLast=0;collapsible=1;marginBottom=0;" parent="Z9xx9OWvTc2MJX5FuLhZ-1" vertex="1">
          <mxGeometry x="420" y="20" width="160" height="98" as="geometry" />
        </mxCell>
        <mxCell id="B3RsMr9qxGWXzGG_hSZn-45" value="start: Int=0&#xa;normal: Int=1&#xa;end: Int=2" style="text;strokeColor=none;fillColor=none;align=left;verticalAlign=top;spacingLeft=4;spacingRight=4;overflow=hidden;rotatable=0;points=[[0,0.5],[1,0.5]];portConstraint=eastwest;" parent="B3RsMr9qxGWXzGG_hSZn-44" vertex="1">
          <mxGeometry y="40" width="160" height="50" as="geometry" />
        </mxCell>
        <mxCell id="B3RsMr9qxGWXzGG_hSZn-46" value="" style="line;strokeWidth=1;fillColor=none;align=left;verticalAlign=middle;spacingTop=-1;spacingLeft=3;spacingRight=3;rotatable=0;labelPosition=right;points=[];portConstraint=eastwest;" parent="B3RsMr9qxGWXzGG_hSZn-44" vertex="1">
          <mxGeometry y="90" width="160" height="8" as="geometry" />
        </mxCell>
        <mxCell id="B3RsMr9qxGWXzGG_hSZn-52" value="Identity" style="swimlane;fontStyle=1;align=center;verticalAlign=top;childLayout=stackLayout;horizontal=1;startSize=26;horizontalStack=0;resizeParent=1;resizeParentMax=0;resizeLast=0;collapsible=1;marginBottom=0;" parent="Z9xx9OWvTc2MJX5FuLhZ-1" vertex="1">
          <mxGeometry x="210" y="600" width="160" height="86" as="geometry" />
        </mxCell>
        <mxCell id="B3RsMr9qxGWXzGG_hSZn-53" value="- is_dwarve: Bool" style="text;strokeColor=none;fillColor=none;align=left;verticalAlign=top;spacingLeft=4;spacingRight=4;overflow=hidden;rotatable=0;points=[[0,0.5],[1,0.5]];portConstraint=eastwest;" parent="B3RsMr9qxGWXzGG_hSZn-52" vertex="1">
          <mxGeometry y="26" width="160" height="26" as="geometry" />
        </mxCell>
        <mxCell id="B3RsMr9qxGWXzGG_hSZn-54" value="" style="line;strokeWidth=1;fillColor=none;align=left;verticalAlign=middle;spacingTop=-1;spacingLeft=3;spacingRight=3;rotatable=0;labelPosition=right;points=[];portConstraint=eastwest;" parent="B3RsMr9qxGWXzGG_hSZn-52" vertex="1">
          <mxGeometry y="52" width="160" height="8" as="geometry" />
        </mxCell>
        <mxCell id="B3RsMr9qxGWXzGG_hSZn-55" value="+ get_type(): Bool" style="text;strokeColor=none;fillColor=none;align=left;verticalAlign=top;spacingLeft=4;spacingRight=4;overflow=hidden;rotatable=0;points=[[0,0.5],[1,0.5]];portConstraint=eastwest;" parent="B3RsMr9qxGWXzGG_hSZn-52" vertex="1">
          <mxGeometry y="60" width="160" height="26" as="geometry" />
        </mxCell>
        <mxCell id="8rGICvzAIuumgDk9fDHV-8" style="rounded=0;orthogonalLoop=1;jettySize=auto;html=1;entryX=0.5;entryY=1;entryDx=0;entryDy=0;endArrow=block;endFill=0;" parent="Z9xx9OWvTc2MJX5FuLhZ-1" source="0_adil5_3WDHAceyiCok-0" target="8rGICvzAIuumgDk9fDHV-4" edge="1">
          <mxGeometry relative="1" as="geometry" />
        </mxCell>
        <mxCell id="0_adil5_3WDHAceyiCok-0" value="Rocks" style="swimlane;fontStyle=1;align=center;verticalAlign=top;childLayout=stackLayout;horizontal=1;startSize=26;horizontalStack=0;resizeParent=1;resizeParentMax=0;resizeLast=0;collapsible=1;marginBottom=0;" parent="Z9xx9OWvTc2MJX5FuLhZ-1" vertex="1">
          <mxGeometry x="305" y="780" width="160" height="60" as="geometry" />
        </mxCell>
        <mxCell id="0_adil5_3WDHAceyiCok-2" value="" style="line;strokeWidth=1;fillColor=none;align=left;verticalAlign=middle;spacingTop=-1;spacingLeft=3;spacingRight=3;rotatable=0;labelPosition=right;points=[];portConstraint=eastwest;" parent="0_adil5_3WDHAceyiCok-0" vertex="1">
          <mxGeometry y="26" width="160" height="8" as="geometry" />
        </mxCell>
        <mxCell id="0_adil5_3WDHAceyiCok-3" value="+ destroy_road(): Void" style="text;strokeColor=none;fillColor=none;align=left;verticalAlign=top;spacingLeft=4;spacingRight=4;overflow=hidden;rotatable=0;points=[[0,0.5],[1,0.5]];portConstraint=eastwest;" parent="0_adil5_3WDHAceyiCok-0" vertex="1">
          <mxGeometry y="34" width="160" height="26" as="geometry" />
        </mxCell>
        <mxCell id="8rGICvzAIuumgDk9fDHV-9" style="edgeStyle=none;rounded=0;orthogonalLoop=1;jettySize=auto;html=1;endArrow=block;endFill=0;entryX=0.5;entryY=1;entryDx=0;entryDy=0;" parent="Z9xx9OWvTc2MJX5FuLhZ-1" source="0_adil5_3WDHAceyiCok-4" target="8rGICvzAIuumgDk9fDHV-4" edge="1">
          <mxGeometry relative="1" as="geometry">
            <mxPoint x="480" y="710" as="targetPoint" />
          </mxGeometry>
        </mxCell>
        <mxCell id="0_adil5_3WDHAceyiCok-4" value="Map" style="swimlane;fontStyle=1;align=center;verticalAlign=top;childLayout=stackLayout;horizontal=1;startSize=26;horizontalStack=0;resizeParent=1;resizeParentMax=0;resizeLast=0;collapsible=1;marginBottom=0;" parent="Z9xx9OWvTc2MJX5FuLhZ-1" vertex="1">
          <mxGeometry x="495" y="780" width="160" height="60" as="geometry" />
        </mxCell>
        <mxCell id="0_adil5_3WDHAceyiCok-6" value="" style="line;strokeWidth=1;fillColor=none;align=left;verticalAlign=middle;spacingTop=-1;spacingLeft=3;spacingRight=3;rotatable=0;labelPosition=right;points=[];portConstraint=eastwest;" parent="0_adil5_3WDHAceyiCok-4" vertex="1">
          <mxGeometry y="26" width="160" height="8" as="geometry" />
        </mxCell>
        <mxCell id="0_adil5_3WDHAceyiCok-7" value="+ peek_gold(): Void" style="text;strokeColor=none;fillColor=none;align=left;verticalAlign=top;spacingLeft=4;spacingRight=4;overflow=hidden;rotatable=0;points=[[0,0.5],[1,0.5]];portConstraint=eastwest;" parent="0_adil5_3WDHAceyiCok-4" vertex="1">
          <mxGeometry y="34" width="160" height="26" as="geometry" />
        </mxCell>
        <mxCell id="RaV2QqpRbT5jyljxjlpi-0" value="Room" style="swimlane;fontStyle=1;align=center;verticalAlign=top;childLayout=stackLayout;horizontal=1;startSize=26;horizontalStack=0;resizeParent=1;resizeParentMax=0;resizeLast=0;collapsible=1;marginBottom=0;" parent="Z9xx9OWvTc2MJX5FuLhZ-1" vertex="1">
          <mxGeometry x="80" y="450" width="170" height="94" as="geometry" />
        </mxCell>
        <mxCell id="RaV2QqpRbT5jyljxjlpi-1" value="- state: Room_State&#xa;- controller: Game_Controller" style="text;strokeColor=none;fillColor=none;align=left;verticalAlign=top;spacingLeft=4;spacingRight=4;overflow=hidden;rotatable=0;points=[[0,0.5],[1,0.5]];portConstraint=eastwest;" parent="RaV2QqpRbT5jyljxjlpi-0" vertex="1">
          <mxGeometry y="26" width="170" height="34" as="geometry" />
        </mxCell>
        <mxCell id="RaV2QqpRbT5jyljxjlpi-2" value="" style="line;strokeWidth=1;fillColor=none;align=left;verticalAlign=middle;spacingTop=-1;spacingLeft=3;spacingRight=3;rotatable=0;labelPosition=right;points=[];portConstraint=eastwest;" parent="RaV2QqpRbT5jyljxjlpi-0" vertex="1">
          <mxGeometry y="60" width="170" height="8" as="geometry" />
        </mxCell>
        <mxCell id="RaV2QqpRbT5jyljxjlpi-3" value="+ get_state(): Room_State" style="text;strokeColor=none;fillColor=none;align=left;verticalAlign=top;spacingLeft=4;spacingRight=4;overflow=hidden;rotatable=0;points=[[0,0.5],[1,0.5]];portConstraint=eastwest;" parent="RaV2QqpRbT5jyljxjlpi-0" vertex="1">
          <mxGeometry y="68" width="170" height="26" as="geometry" />
        </mxCell>
        <mxCell id="RaV2QqpRbT5jyljxjlpi-4" value="&lt;&lt;enumerate&gt;&gt;&#xa;Room_State" style="swimlane;fontStyle=1;align=center;verticalAlign=top;childLayout=stackLayout;horizontal=1;startSize=40;horizontalStack=0;resizeParent=1;resizeParentMax=0;resizeLast=0;collapsible=1;marginBottom=0;" parent="Z9xx9OWvTc2MJX5FuLhZ-1" vertex="1">
          <mxGeometry x="590" y="20" width="160" height="98" as="geometry" />
        </mxCell>
        <mxCell id="RaV2QqpRbT5jyljxjlpi-5" value="waiting: Int=0&#xa;playing: Int=1&#xa;end: Int=2" style="text;strokeColor=none;fillColor=none;align=left;verticalAlign=top;spacingLeft=4;spacingRight=4;overflow=hidden;rotatable=0;points=[[0,0.5],[1,0.5]];portConstraint=eastwest;" parent="RaV2QqpRbT5jyljxjlpi-4" vertex="1">
          <mxGeometry y="40" width="160" height="50" as="geometry" />
        </mxCell>
        <mxCell id="RaV2QqpRbT5jyljxjlpi-6" value="" style="line;strokeWidth=1;fillColor=none;align=left;verticalAlign=middle;spacingTop=-1;spacingLeft=3;spacingRight=3;rotatable=0;labelPosition=right;points=[];portConstraint=eastwest;" parent="RaV2QqpRbT5jyljxjlpi-4" vertex="1">
          <mxGeometry y="90" width="160" height="8" as="geometry" />
        </mxCell>
        <mxCell id="8rGICvzAIuumgDk9fDHV-0" value="Road" style="swimlane;fontStyle=1;align=center;verticalAlign=top;childLayout=stackLayout;horizontal=1;startSize=26;horizontalStack=0;resizeParent=1;resizeParentMax=0;resizeLast=0;collapsible=1;marginBottom=0;" parent="Z9xx9OWvTc2MJX5FuLhZ-1" vertex="1">
          <mxGeometry x="590" y="600" width="160" height="114" as="geometry" />
        </mxCell>
        <mxCell id="8rGICvzAIuumgDk9fDHV-1" value="+ rotate: Int&#xa;+ is_connected: Bool[4]&#xa;- road_type: Road_type" style="text;strokeColor=none;fillColor=none;align=left;verticalAlign=top;spacingLeft=4;spacingRight=4;overflow=hidden;rotatable=0;points=[[0,0.5],[1,0.5]];portConstraint=eastwest;" parent="8rGICvzAIuumgDk9fDHV-0" vertex="1">
          <mxGeometry y="26" width="160" height="54" as="geometry" />
        </mxCell>
        <mxCell id="8rGICvzAIuumgDk9fDHV-2" value="" style="line;strokeWidth=1;fillColor=none;align=left;verticalAlign=middle;spacingTop=-1;spacingLeft=3;spacingRight=3;rotatable=0;labelPosition=right;points=[];portConstraint=eastwest;" parent="8rGICvzAIuumgDk9fDHV-0" vertex="1">
          <mxGeometry y="80" width="160" height="8" as="geometry" />
        </mxCell>
        <mxCell id="8rGICvzAIuumgDk9fDHV-3" value="+ get_type(): Road_Type" style="text;strokeColor=none;fillColor=none;align=left;verticalAlign=top;spacingLeft=4;spacingRight=4;overflow=hidden;rotatable=0;points=[[0,0.5],[1,0.5]];portConstraint=eastwest;" parent="8rGICvzAIuumgDk9fDHV-0" vertex="1">
          <mxGeometry y="88" width="160" height="26" as="geometry" />
        </mxCell>
        <mxCell id="8rGICvzAIuumgDk9fDHV-4" value="Action" style="swimlane;fontStyle=1;align=center;verticalAlign=top;childLayout=stackLayout;horizontal=1;startSize=26;horizontalStack=0;resizeParent=1;resizeParentMax=0;resizeLast=0;collapsible=1;marginBottom=0;" parent="Z9xx9OWvTc2MJX5FuLhZ-1" vertex="1">
          <mxGeometry x="390" y="600" width="180" height="108" as="geometry" />
        </mxCell>
        <mxCell id="8rGICvzAIuumgDk9fDHV-5" value="- action_type: Action_Type[1..2]&#xa;- is_break: Bool" style="text;strokeColor=none;fillColor=none;align=left;verticalAlign=top;spacingLeft=4;spacingRight=4;overflow=hidden;rotatable=0;points=[[0,0.5],[1,0.5]];portConstraint=eastwest;" parent="8rGICvzAIuumgDk9fDHV-4" vertex="1">
          <mxGeometry y="26" width="180" height="34" as="geometry" />
        </mxCell>
        <mxCell id="8rGICvzAIuumgDk9fDHV-6" value="" style="line;strokeWidth=1;fillColor=none;align=left;verticalAlign=middle;spacingTop=-1;spacingLeft=3;spacingRight=3;rotatable=0;labelPosition=right;points=[];portConstraint=eastwest;" parent="8rGICvzAIuumgDk9fDHV-4" vertex="1">
          <mxGeometry y="60" width="180" height="8" as="geometry" />
        </mxCell>
        <mxCell id="8rGICvzAIuumgDk9fDHV-7" value="+ get_type(): List[Action_Type]&#xa;+ get_break(): Bool" style="text;strokeColor=none;fillColor=none;align=left;verticalAlign=top;spacingLeft=4;spacingRight=4;overflow=hidden;rotatable=0;points=[[0,0.5],[1,0.5]];portConstraint=eastwest;" parent="8rGICvzAIuumgDk9fDHV-4" vertex="1">
          <mxGeometry y="68" width="180" height="40" as="geometry" />
        </mxCell>
      </root>
    </mxGraphModel>
  </diagram>
  <diagram name="(g) Class_1" id="kXW-MQTHiW8yfxPLWu0p">
    <mxGraphModel dx="2218" dy="861" grid="1" gridSize="10" guides="1" tooltips="1" connect="1" arrows="1" fold="1" page="1" pageScale="1" pageWidth="827" pageHeight="1169" math="0" shadow="0">
      <root>
        <mxCell id="uuYtuYXiBMt7Xo_ZA9Lb-0" />
        <mxCell id="uuYtuYXiBMt7Xo_ZA9Lb-1" parent="uuYtuYXiBMt7Xo_ZA9Lb-0" />
        <mxCell id="ig4ZtLez6EBbR9WeV2WM-141" style="edgeStyle=orthogonalEdgeStyle;rounded=0;orthogonalLoop=1;jettySize=auto;html=1;endArrow=diamondThin;endFill=0;" edge="1" parent="uuYtuYXiBMt7Xo_ZA9Lb-1" source="ig4ZtLez6EBbR9WeV2WM-145" target="ig4ZtLez6EBbR9WeV2WM-206">
          <mxGeometry relative="1" as="geometry">
            <mxPoint x="112.5" y="258" as="sourcePoint" />
            <mxPoint x="-227.5" y="240" as="targetPoint" />
          </mxGeometry>
        </mxCell>
        <mxCell id="ig4ZtLez6EBbR9WeV2WM-142" value="&lt;span style=&quot;font-size: 12px ; text-align: left ; background-color: rgb(248 , 249 , 250)&quot;&gt;- controller&lt;/span&gt;" style="edgeLabel;html=1;align=center;verticalAlign=middle;resizable=0;points=[];" vertex="1" connectable="0" parent="ig4ZtLez6EBbR9WeV2WM-141">
          <mxGeometry x="-0.9048" relative="1" as="geometry">
            <mxPoint x="-17" y="-10" as="offset" />
          </mxGeometry>
        </mxCell>
        <mxCell id="ig4ZtLez6EBbR9WeV2WM-143" value="1" style="edgeLabel;html=1;align=center;verticalAlign=middle;resizable=0;points=[];" vertex="1" connectable="0" parent="ig4ZtLez6EBbR9WeV2WM-141">
          <mxGeometry x="-0.8619" y="1" relative="1" as="geometry">
            <mxPoint x="14.56" y="7.03" as="offset" />
          </mxGeometry>
        </mxCell>
        <mxCell id="ig4ZtLez6EBbR9WeV2WM-144" value="1" style="edgeLabel;html=1;align=center;verticalAlign=middle;resizable=0;points=[];" vertex="1" connectable="0" parent="ig4ZtLez6EBbR9WeV2WM-141">
          <mxGeometry x="0.9161" y="1" relative="1" as="geometry">
            <mxPoint y="10.74" as="offset" />
          </mxGeometry>
        </mxCell>
        <mxCell id="ig4ZtLez6EBbR9WeV2WM-145" value="Game_Controller" style="swimlane;fontStyle=1;align=center;verticalAlign=top;childLayout=stackLayout;horizontal=1;startSize=26;horizontalStack=0;resizeParent=1;resizeParentMax=0;resizeLast=0;collapsible=1;marginBottom=0;" vertex="1" parent="uuYtuYXiBMt7Xo_ZA9Lb-1">
          <mxGeometry x="42.5" y="30" width="320" height="330" as="geometry" />
        </mxCell>
        <mxCell id="ig4ZtLez6EBbR9WeV2WM-146" value="+ round: Int&#xa;+ num_player: Int&#xa;+ turn: Int&#xa;+ role_list: Int[4..5]&#xa;+ gole_stack: Int[28]&#xa;+ gold_pos: Int" style="text;strokeColor=none;fillColor=none;align=left;verticalAlign=top;spacingLeft=4;spacingRight=4;overflow=hidden;rotatable=0;points=[[0,0.5],[1,0.5]];portConstraint=eastwest;" vertex="1" parent="ig4ZtLez6EBbR9WeV2WM-145">
          <mxGeometry y="26" width="320" height="90" as="geometry" />
        </mxCell>
        <mxCell id="ig4ZtLez6EBbR9WeV2WM-147" value="" style="line;strokeWidth=1;fillColor=none;align=left;verticalAlign=middle;spacingTop=-1;spacingLeft=3;spacingRight=3;rotatable=0;labelPosition=right;points=[];portConstraint=eastwest;" vertex="1" parent="ig4ZtLez6EBbR9WeV2WM-145">
          <mxGeometry y="116" width="320" height="8" as="geometry" />
        </mxCell>
        <mxCell id="ig4ZtLez6EBbR9WeV2WM-148" value="+ from_scratch(List[Str]): Game_controller&#xa;+ to_json(): Dict&#xa;+ state_control(Int, Int, Int): Void&#xa;+ board_reset(): Void&#xa;+ set_role(): Void&#xa;+ set_player_role(): Void&#xa;+ set_player_state(List[Player], Action, Int): Void&#xa;+ round_reset(): Void&#xa;+ connect_to_start(Road, Int, Int, Bool[Bool]): Bool&#xa;+ connect_to_rock(Road, Int, Int): Int&#xa;+ check_legality(Player, Card, Int, Int): Bool, Str&#xa;+ deal_card(List[Player], Card): Void&#xa;+ calc_point(List[Player], Player): Void&#xa;+ calc_rank(): Void" style="text;strokeColor=none;fillColor=none;align=left;verticalAlign=top;spacingLeft=4;spacingRight=4;overflow=hidden;rotatable=0;points=[[0,0.5],[1,0.5]];portConstraint=eastwest;" vertex="1" parent="ig4ZtLez6EBbR9WeV2WM-145">
          <mxGeometry y="124" width="320" height="206" as="geometry" />
        </mxCell>
        <mxCell id="ig4ZtLez6EBbR9WeV2WM-149" style="edgeStyle=orthogonalEdgeStyle;rounded=0;orthogonalLoop=1;jettySize=auto;html=1;endArrow=diamondThin;endFill=0;" edge="1" parent="uuYtuYXiBMt7Xo_ZA9Lb-1" source="ig4ZtLez6EBbR9WeV2WM-159" target="ig4ZtLez6EBbR9WeV2WM-145">
          <mxGeometry relative="1" as="geometry">
            <Array as="points">
              <mxPoint x="496.5" y="342" />
              <mxPoint x="496.5" y="342" />
            </Array>
          </mxGeometry>
        </mxCell>
        <mxCell id="ig4ZtLez6EBbR9WeV2WM-150" value="&lt;span style=&quot;font-size: 12px ; text-align: left ; background-color: rgb(248 , 249 , 250)&quot;&gt;+ player_list&lt;/span&gt;" style="edgeLabel;html=1;align=center;verticalAlign=middle;resizable=0;points=[];" vertex="1" connectable="0" parent="ig4ZtLez6EBbR9WeV2WM-149">
          <mxGeometry x="-0.7875" y="2" relative="1" as="geometry">
            <mxPoint x="-17" y="-12" as="offset" />
          </mxGeometry>
        </mxCell>
        <mxCell id="ig4ZtLez6EBbR9WeV2WM-151" value="1" style="edgeLabel;html=1;align=center;verticalAlign=middle;resizable=0;points=[];" vertex="1" connectable="0" parent="ig4ZtLez6EBbR9WeV2WM-149">
          <mxGeometry x="0.7375" y="-1" relative="1" as="geometry">
            <mxPoint x="-11" y="11" as="offset" />
          </mxGeometry>
        </mxCell>
        <mxCell id="ig4ZtLez6EBbR9WeV2WM-152" value="3..4" style="edgeLabel;html=1;align=center;verticalAlign=middle;resizable=0;points=[];" vertex="1" connectable="0" parent="ig4ZtLez6EBbR9WeV2WM-149">
          <mxGeometry x="-0.7875" y="3" relative="1" as="geometry">
            <mxPoint x="3" y="7" as="offset" />
          </mxGeometry>
        </mxCell>
        <mxCell id="ig4ZtLez6EBbR9WeV2WM-153" style="edgeStyle=orthogonalEdgeStyle;rounded=0;orthogonalLoop=1;jettySize=auto;html=1;endArrow=diamondThin;endFill=0;" edge="1" parent="uuYtuYXiBMt7Xo_ZA9Lb-1" source="ig4ZtLez6EBbR9WeV2WM-159" target="ig4ZtLez6EBbR9WeV2WM-145">
          <mxGeometry relative="1" as="geometry">
            <Array as="points">
              <mxPoint x="418.5" y="262" />
              <mxPoint x="418.5" y="342" />
            </Array>
          </mxGeometry>
        </mxCell>
        <mxCell id="ig4ZtLez6EBbR9WeV2WM-154" value="+ winner" style="edgeLabel;html=1;align=center;verticalAlign=middle;resizable=0;points=[];" vertex="1" connectable="0" parent="ig4ZtLez6EBbR9WeV2WM-153">
          <mxGeometry x="-0.7193" y="1" relative="1" as="geometry">
            <mxPoint x="11" y="-11" as="offset" />
          </mxGeometry>
        </mxCell>
        <mxCell id="ig4ZtLez6EBbR9WeV2WM-155" value="1" style="edgeLabel;html=1;align=center;verticalAlign=middle;resizable=0;points=[];" vertex="1" connectable="0" parent="ig4ZtLez6EBbR9WeV2WM-153">
          <mxGeometry x="-0.4912" y="2" relative="1" as="geometry">
            <mxPoint x="65" y="8" as="offset" />
          </mxGeometry>
        </mxCell>
        <mxCell id="ig4ZtLez6EBbR9WeV2WM-156" style="edgeStyle=orthogonalEdgeStyle;rounded=0;orthogonalLoop=1;jettySize=auto;html=1;endArrow=diamondThin;endFill=0;" edge="1" parent="uuYtuYXiBMt7Xo_ZA9Lb-1" source="ig4ZtLez6EBbR9WeV2WM-159">
          <mxGeometry relative="1" as="geometry">
            <Array as="points">
              <mxPoint x="476.5" y="297" />
              <mxPoint x="476.5" y="342" />
            </Array>
            <mxPoint x="362.5" y="342" as="targetPoint" />
          </mxGeometry>
        </mxCell>
        <mxCell id="ig4ZtLez6EBbR9WeV2WM-157" value="+ winner_list" style="edgeLabel;html=1;align=center;verticalAlign=middle;resizable=0;points=[];" vertex="1" connectable="0" parent="ig4ZtLez6EBbR9WeV2WM-156">
          <mxGeometry x="-0.8091" y="1" relative="1" as="geometry">
            <mxPoint x="-15" y="-13" as="offset" />
          </mxGeometry>
        </mxCell>
        <mxCell id="ig4ZtLez6EBbR9WeV2WM-158" value="3..4" style="edgeLabel;html=1;align=center;verticalAlign=middle;resizable=0;points=[];" vertex="1" connectable="0" parent="ig4ZtLez6EBbR9WeV2WM-156">
          <mxGeometry x="-0.7913" relative="1" as="geometry">
            <mxPoint x="10" y="15" as="offset" />
          </mxGeometry>
        </mxCell>
        <mxCell id="ig4ZtLez6EBbR9WeV2WM-159" value="Player" style="swimlane;fontStyle=1;align=center;verticalAlign=top;childLayout=stackLayout;horizontal=1;startSize=26;horizontalStack=0;resizeParent=1;resizeParentMax=0;resizeLast=0;collapsible=1;marginBottom=0;" vertex="1" parent="uuYtuYXiBMt7Xo_ZA9Lb-1">
          <mxGeometry x="570" y="233" width="210" height="124" as="geometry" />
        </mxCell>
        <mxCell id="ig4ZtLez6EBbR9WeV2WM-160" value="+ id: Str&#xa;+ point: Int&#xa;+ role: Bool&#xa;+ action_state: Bool[3]" style="text;strokeColor=none;fillColor=none;align=left;verticalAlign=top;spacingLeft=4;spacingRight=4;overflow=hidden;rotatable=0;points=[[0,0.5],[1,0.5]];portConstraint=eastwest;" vertex="1" parent="ig4ZtLez6EBbR9WeV2WM-159">
          <mxGeometry y="26" width="210" height="64" as="geometry" />
        </mxCell>
        <mxCell id="ig4ZtLez6EBbR9WeV2WM-161" value="" style="line;strokeWidth=1;fillColor=none;align=left;verticalAlign=middle;spacingTop=-1;spacingLeft=3;spacingRight=3;rotatable=0;labelPosition=right;points=[];portConstraint=eastwest;" vertex="1" parent="ig4ZtLez6EBbR9WeV2WM-159">
          <mxGeometry y="90" width="210" height="8" as="geometry" />
        </mxCell>
        <mxCell id="ig4ZtLez6EBbR9WeV2WM-162" value="+ play_card(Int, Int, Int): Card, Int, Int" style="text;strokeColor=none;fillColor=none;align=left;verticalAlign=top;spacingLeft=4;spacingRight=4;overflow=hidden;rotatable=0;points=[[0,0.5],[1,0.5]];portConstraint=eastwest;" vertex="1" parent="ig4ZtLez6EBbR9WeV2WM-159">
          <mxGeometry y="98" width="210" height="26" as="geometry" />
        </mxCell>
        <mxCell id="ig4ZtLez6EBbR9WeV2WM-163" style="edgeStyle=orthogonalEdgeStyle;rounded=0;orthogonalLoop=1;jettySize=auto;html=1;endArrow=diamondThin;endFill=0;" edge="1" parent="uuYtuYXiBMt7Xo_ZA9Lb-1" source="ig4ZtLez6EBbR9WeV2WM-175" target="ig4ZtLez6EBbR9WeV2WM-159">
          <mxGeometry relative="1" as="geometry">
            <Array as="points">
              <mxPoint x="646.5" y="485" />
            </Array>
          </mxGeometry>
        </mxCell>
        <mxCell id="ig4ZtLez6EBbR9WeV2WM-164" value="0..6" style="edgeLabel;html=1;align=center;verticalAlign=middle;resizable=0;points=[];" vertex="1" connectable="0" parent="ig4ZtLez6EBbR9WeV2WM-163">
          <mxGeometry x="-0.92" y="3" relative="1" as="geometry">
            <mxPoint x="-2" y="-7" as="offset" />
          </mxGeometry>
        </mxCell>
        <mxCell id="ig4ZtLez6EBbR9WeV2WM-165" value="&lt;span style=&quot;font-size: 12px ; text-align: left ; background-color: rgb(248 , 249 , 250)&quot;&gt;+ hand_cards&lt;/span&gt;" style="edgeLabel;html=1;align=center;verticalAlign=middle;resizable=0;points=[];" vertex="1" connectable="0" parent="ig4ZtLez6EBbR9WeV2WM-163">
          <mxGeometry x="-0.8965" y="-1" relative="1" as="geometry">
            <mxPoint x="13" y="7" as="offset" />
          </mxGeometry>
        </mxCell>
        <mxCell id="ig4ZtLez6EBbR9WeV2WM-166" value="1" style="edgeLabel;html=1;align=center;verticalAlign=middle;resizable=0;points=[];" vertex="1" connectable="0" parent="ig4ZtLez6EBbR9WeV2WM-163">
          <mxGeometry x="0.8871" relative="1" as="geometry">
            <mxPoint x="-10" y="-9" as="offset" />
          </mxGeometry>
        </mxCell>
        <mxCell id="ig4ZtLez6EBbR9WeV2WM-167" style="edgeStyle=orthogonalEdgeStyle;rounded=0;orthogonalLoop=1;jettySize=auto;html=1;endArrow=diamondThin;endFill=0;" edge="1" parent="uuYtuYXiBMt7Xo_ZA9Lb-1" source="ig4ZtLez6EBbR9WeV2WM-175" target="ig4ZtLez6EBbR9WeV2WM-145">
          <mxGeometry relative="1" as="geometry">
            <Array as="points">
              <mxPoint x="192.5" y="432" />
              <mxPoint x="192.5" y="432" />
            </Array>
          </mxGeometry>
        </mxCell>
        <mxCell id="ig4ZtLez6EBbR9WeV2WM-168" value="0..71" style="edgeLabel;html=1;align=center;verticalAlign=middle;resizable=0;points=[];" vertex="1" connectable="0" parent="ig4ZtLez6EBbR9WeV2WM-167">
          <mxGeometry x="-0.8561" y="1" relative="1" as="geometry">
            <mxPoint x="-15" y="-2" as="offset" />
          </mxGeometry>
        </mxCell>
        <mxCell id="ig4ZtLez6EBbR9WeV2WM-169" value="- fold_deck" style="edgeLabel;html=1;align=center;verticalAlign=middle;resizable=0;points=[];" vertex="1" connectable="0" parent="ig4ZtLez6EBbR9WeV2WM-167">
          <mxGeometry x="-0.7968" y="-2" relative="1" as="geometry">
            <mxPoint x="29" as="offset" />
          </mxGeometry>
        </mxCell>
        <mxCell id="ig4ZtLez6EBbR9WeV2WM-170" value="1" style="edgeLabel;html=1;align=center;verticalAlign=middle;resizable=0;points=[];" vertex="1" connectable="0" parent="ig4ZtLez6EBbR9WeV2WM-167">
          <mxGeometry x="0.854" relative="1" as="geometry">
            <mxPoint x="-7" y="3" as="offset" />
          </mxGeometry>
        </mxCell>
        <mxCell id="ig4ZtLez6EBbR9WeV2WM-171" style="edgeStyle=orthogonalEdgeStyle;rounded=0;orthogonalLoop=1;jettySize=auto;html=1;endArrow=diamondThin;endFill=0;" edge="1" parent="uuYtuYXiBMt7Xo_ZA9Lb-1" source="ig4ZtLez6EBbR9WeV2WM-175" target="ig4ZtLez6EBbR9WeV2WM-145">
          <mxGeometry relative="1" as="geometry">
            <Array as="points">
              <mxPoint x="292.5" y="408" />
              <mxPoint x="292.5" y="408" />
            </Array>
          </mxGeometry>
        </mxCell>
        <mxCell id="ig4ZtLez6EBbR9WeV2WM-172" value="0..71" style="edgeLabel;html=1;align=center;verticalAlign=middle;resizable=0;points=[];" vertex="1" connectable="0" parent="ig4ZtLez6EBbR9WeV2WM-171">
          <mxGeometry x="-0.8173" y="2" relative="1" as="geometry">
            <mxPoint x="-15" y="-1" as="offset" />
          </mxGeometry>
        </mxCell>
        <mxCell id="ig4ZtLez6EBbR9WeV2WM-173" value="- card_pool" style="edgeLabel;html=1;align=center;verticalAlign=middle;resizable=0;points=[];" vertex="1" connectable="0" parent="ig4ZtLez6EBbR9WeV2WM-171">
          <mxGeometry x="-0.8455" relative="1" as="geometry">
            <mxPoint x="32" y="-3" as="offset" />
          </mxGeometry>
        </mxCell>
        <mxCell id="ig4ZtLez6EBbR9WeV2WM-174" value="1" style="edgeLabel;html=1;align=center;verticalAlign=middle;resizable=0;points=[];" vertex="1" connectable="0" parent="ig4ZtLez6EBbR9WeV2WM-171">
          <mxGeometry x="0.7912" y="1" relative="1" as="geometry">
            <mxPoint x="-9" as="offset" />
          </mxGeometry>
        </mxCell>
        <mxCell id="ig4ZtLez6EBbR9WeV2WM-175" value="Card" style="swimlane;fontStyle=1;align=center;verticalAlign=top;childLayout=stackLayout;horizontal=1;startSize=26;horizontalStack=0;resizeParent=1;resizeParentMax=0;resizeLast=0;collapsible=1;marginBottom=0;" vertex="1" parent="uuYtuYXiBMt7Xo_ZA9Lb-1">
          <mxGeometry x="149.5" y="468" width="180" height="84" as="geometry" />
        </mxCell>
        <mxCell id="ig4ZtLez6EBbR9WeV2WM-176" value="+ card_no: Int" style="text;html=1;align=left;verticalAlign=middle;resizable=0;points=[];autosize=1;strokeColor=none;" vertex="1" parent="ig4ZtLez6EBbR9WeV2WM-175">
          <mxGeometry y="26" width="180" height="20" as="geometry" />
        </mxCell>
        <mxCell id="ig4ZtLez6EBbR9WeV2WM-177" value="" style="line;strokeWidth=1;fillColor=none;align=left;verticalAlign=middle;spacingTop=-1;spacingLeft=3;spacingRight=3;rotatable=0;labelPosition=right;points=[];portConstraint=eastwest;" vertex="1" parent="ig4ZtLez6EBbR9WeV2WM-175">
          <mxGeometry y="46" width="180" height="8" as="geometry" />
        </mxCell>
        <mxCell id="ig4ZtLez6EBbR9WeV2WM-178" value="+ set_activate(): Void&lt;br&gt;+ activate(): Void" style="text;html=1;align=left;verticalAlign=middle;resizable=0;points=[];autosize=1;strokeColor=none;" vertex="1" parent="ig4ZtLez6EBbR9WeV2WM-175">
          <mxGeometry y="54" width="180" height="30" as="geometry" />
        </mxCell>
        <mxCell id="ig4ZtLez6EBbR9WeV2WM-179" style="edgeStyle=orthogonalEdgeStyle;rounded=0;orthogonalLoop=1;jettySize=auto;html=1;endArrow=diamondThin;endFill=0;" edge="1" parent="uuYtuYXiBMt7Xo_ZA9Lb-1" source="ig4ZtLez6EBbR9WeV2WM-183" target="ig4ZtLez6EBbR9WeV2WM-145">
          <mxGeometry relative="1" as="geometry">
            <Array as="points">
              <mxPoint x="-37.5" y="242" />
            </Array>
          </mxGeometry>
        </mxCell>
        <mxCell id="ig4ZtLez6EBbR9WeV2WM-180" value="&lt;span style=&quot;font-size: 12px ; text-align: left ; background-color: rgb(248 , 249 , 250)&quot;&gt;+ game_state&lt;/span&gt;" style="edgeLabel;html=1;align=center;verticalAlign=middle;resizable=0;points=[];" vertex="1" connectable="0" parent="ig4ZtLez6EBbR9WeV2WM-179">
          <mxGeometry x="-0.9307" y="-1" relative="1" as="geometry">
            <mxPoint x="37" y="-8" as="offset" />
          </mxGeometry>
        </mxCell>
        <mxCell id="ig4ZtLez6EBbR9WeV2WM-181" value="1" style="edgeLabel;html=1;align=center;verticalAlign=middle;resizable=0;points=[];" vertex="1" connectable="0" parent="ig4ZtLez6EBbR9WeV2WM-179">
          <mxGeometry x="-0.9279" y="-1" relative="1" as="geometry">
            <mxPoint x="-7" y="-8" as="offset" />
          </mxGeometry>
        </mxCell>
        <mxCell id="ig4ZtLez6EBbR9WeV2WM-182" value="1" style="edgeLabel;html=1;align=center;verticalAlign=middle;resizable=0;points=[];" vertex="1" connectable="0" parent="ig4ZtLez6EBbR9WeV2WM-179">
          <mxGeometry x="0.8784" relative="1" as="geometry">
            <mxPoint x="-8" y="-10" as="offset" />
          </mxGeometry>
        </mxCell>
        <mxCell id="ig4ZtLez6EBbR9WeV2WM-183" value="&lt;&lt;enumerate&gt;&gt;&#xa;Game_State" style="swimlane;fontStyle=1;align=center;verticalAlign=top;childLayout=stackLayout;horizontal=1;startSize=40;horizontalStack=0;resizeParent=1;resizeParentMax=0;resizeLast=0;collapsible=1;marginBottom=0;" vertex="1" parent="uuYtuYXiBMt7Xo_ZA9Lb-1">
          <mxGeometry x="-127.5" y="357" width="160" height="108" as="geometry" />
        </mxCell>
        <mxCell id="ig4ZtLez6EBbR9WeV2WM-184" value="reset: Int=0&#xa;play: Int=1&#xa;game_point: Int=2&#xa;set_point: Int=3" style="text;strokeColor=none;fillColor=none;align=left;verticalAlign=top;spacingLeft=4;spacingRight=4;overflow=hidden;rotatable=0;points=[[0,0.5],[1,0.5]];portConstraint=eastwest;" vertex="1" parent="ig4ZtLez6EBbR9WeV2WM-183">
          <mxGeometry y="40" width="160" height="60" as="geometry" />
        </mxCell>
        <mxCell id="ig4ZtLez6EBbR9WeV2WM-185" value="" style="line;strokeWidth=1;fillColor=none;align=left;verticalAlign=middle;spacingTop=-1;spacingLeft=3;spacingRight=3;rotatable=0;labelPosition=right;points=[];portConstraint=eastwest;" vertex="1" parent="ig4ZtLez6EBbR9WeV2WM-183">
          <mxGeometry y="100" width="160" height="8" as="geometry" />
        </mxCell>
        <mxCell id="ig4ZtLez6EBbR9WeV2WM-186" style="edgeStyle=orthogonalEdgeStyle;rounded=0;orthogonalLoop=1;jettySize=auto;html=1;endArrow=block;endFill=0;" edge="1" parent="uuYtuYXiBMt7Xo_ZA9Lb-1" source="ig4ZtLez6EBbR9WeV2WM-191" target="ig4ZtLez6EBbR9WeV2WM-175">
          <mxGeometry relative="1" as="geometry">
            <Array as="points">
              <mxPoint x="-120" y="570" />
              <mxPoint x="240" y="570" />
            </Array>
            <mxPoint x="-100" y="610" as="sourcePoint" />
          </mxGeometry>
        </mxCell>
        <mxCell id="ig4ZtLez6EBbR9WeV2WM-187" style="edgeStyle=orthogonalEdgeStyle;rounded=0;orthogonalLoop=1;jettySize=auto;html=1;endArrow=diamondThin;endFill=0;" edge="1" parent="uuYtuYXiBMt7Xo_ZA9Lb-1" source="ig4ZtLez6EBbR9WeV2WM-191" target="ig4ZtLez6EBbR9WeV2WM-145">
          <mxGeometry relative="1" as="geometry">
            <Array as="points">
              <mxPoint x="-190" y="490" />
              <mxPoint x="110" y="490" />
            </Array>
            <mxPoint x="-180" y="630" as="sourcePoint" />
            <mxPoint x="110" y="360" as="targetPoint" />
          </mxGeometry>
        </mxCell>
        <mxCell id="ig4ZtLez6EBbR9WeV2WM-188" value="45" style="edgeLabel;html=1;align=center;verticalAlign=middle;resizable=0;points=[];" vertex="1" connectable="0" parent="ig4ZtLez6EBbR9WeV2WM-187">
          <mxGeometry x="-0.94" y="1" relative="1" as="geometry">
            <mxPoint x="-8" y="9" as="offset" />
          </mxGeometry>
        </mxCell>
        <mxCell id="ig4ZtLez6EBbR9WeV2WM-189" value="1" style="edgeLabel;html=1;align=center;verticalAlign=middle;resizable=0;points=[];" vertex="1" connectable="0" parent="ig4ZtLez6EBbR9WeV2WM-187">
          <mxGeometry x="0.9312" y="1" relative="1" as="geometry">
            <mxPoint x="-9" y="-10" as="offset" />
          </mxGeometry>
        </mxCell>
        <mxCell id="ig4ZtLez6EBbR9WeV2WM-190" value="+ board" style="edgeLabel;html=1;align=center;verticalAlign=middle;resizable=0;points=[];" vertex="1" connectable="0" parent="ig4ZtLez6EBbR9WeV2WM-187">
          <mxGeometry x="-0.8793" relative="1" as="geometry">
            <mxPoint x="25" y="25" as="offset" />
          </mxGeometry>
        </mxCell>
        <mxCell id="ig4ZtLez6EBbR9WeV2WM-191" value="Road" style="swimlane;fontStyle=1;align=center;verticalAlign=top;childLayout=stackLayout;horizontal=1;startSize=26;horizontalStack=0;resizeParent=1;resizeParentMax=0;resizeLast=0;collapsible=1;marginBottom=0;" vertex="1" parent="uuYtuYXiBMt7Xo_ZA9Lb-1">
          <mxGeometry x="-270" y="640" width="190" height="90" as="geometry" />
        </mxCell>
        <mxCell id="ig4ZtLez6EBbR9WeV2WM-192" value="+ rotate: Int&#xa;+ connected: Int[5]" style="text;strokeColor=none;fillColor=none;align=left;verticalAlign=top;spacingLeft=4;spacingRight=4;overflow=hidden;rotatable=0;points=[[0,0.5],[1,0.5]];portConstraint=eastwest;" vertex="1" parent="ig4ZtLez6EBbR9WeV2WM-191">
          <mxGeometry y="26" width="190" height="34" as="geometry" />
        </mxCell>
        <mxCell id="ig4ZtLez6EBbR9WeV2WM-193" value="" style="line;strokeWidth=1;fillColor=none;align=left;verticalAlign=middle;spacingTop=-1;spacingLeft=3;spacingRight=3;rotatable=0;labelPosition=right;points=[];portConstraint=eastwest;" vertex="1" parent="ig4ZtLez6EBbR9WeV2WM-191">
          <mxGeometry y="60" width="190" height="8" as="geometry" />
        </mxCell>
        <mxCell id="ig4ZtLez6EBbR9WeV2WM-194" value="+ road_connection(): Int[5]" style="text;strokeColor=none;fillColor=none;align=left;verticalAlign=top;spacingLeft=4;spacingRight=4;overflow=hidden;rotatable=0;points=[[0,0.5],[1,0.5]];portConstraint=eastwest;" vertex="1" parent="ig4ZtLez6EBbR9WeV2WM-191">
          <mxGeometry y="68" width="190" height="22" as="geometry" />
        </mxCell>
        <mxCell id="ig4ZtLez6EBbR9WeV2WM-195" style="edgeStyle=orthogonalEdgeStyle;rounded=0;orthogonalLoop=1;jettySize=auto;html=1;endArrow=block;endFill=0;" edge="1" parent="uuYtuYXiBMt7Xo_ZA9Lb-1" source="ig4ZtLez6EBbR9WeV2WM-196" target="ig4ZtLez6EBbR9WeV2WM-175">
          <mxGeometry relative="1" as="geometry">
            <mxPoint x="266.5" y="542" as="targetPoint" />
            <Array as="points">
              <mxPoint x="30" y="570" />
              <mxPoint x="240" y="570" />
            </Array>
          </mxGeometry>
        </mxCell>
        <mxCell id="ig4ZtLez6EBbR9WeV2WM-196" value="Action" style="swimlane;fontStyle=1;align=center;verticalAlign=top;childLayout=stackLayout;horizontal=1;startSize=26;horizontalStack=0;resizeParent=1;resizeParentMax=0;resizeLast=0;collapsible=1;marginBottom=0;" vertex="1" parent="uuYtuYXiBMt7Xo_ZA9Lb-1">
          <mxGeometry x="-60" y="640" width="180" height="58" as="geometry" />
        </mxCell>
        <mxCell id="ig4ZtLez6EBbR9WeV2WM-197" value="+ is_break: Bool" style="text;strokeColor=none;fillColor=none;align=left;verticalAlign=top;spacingLeft=4;spacingRight=4;overflow=hidden;rotatable=0;points=[[0,0.5],[1,0.5]];portConstraint=eastwest;" vertex="1" parent="ig4ZtLez6EBbR9WeV2WM-196">
          <mxGeometry y="26" width="180" height="24" as="geometry" />
        </mxCell>
        <mxCell id="ig4ZtLez6EBbR9WeV2WM-198" value="" style="line;strokeWidth=1;fillColor=none;align=left;verticalAlign=middle;spacingTop=-1;spacingLeft=3;spacingRight=3;rotatable=0;labelPosition=right;points=[];portConstraint=eastwest;" vertex="1" parent="ig4ZtLez6EBbR9WeV2WM-196">
          <mxGeometry y="50" width="180" height="8" as="geometry" />
        </mxCell>
        <mxCell id="ig4ZtLez6EBbR9WeV2WM-199" value="Room_Controller" style="swimlane;fontStyle=1;align=center;verticalAlign=top;childLayout=stackLayout;horizontal=1;startSize=26;horizontalStack=0;resizeParent=1;resizeParentMax=0;resizeLast=0;collapsible=1;marginBottom=0;" vertex="1" parent="uuYtuYXiBMt7Xo_ZA9Lb-1">
          <mxGeometry x="-533.5" y="149" width="160" height="84" as="geometry" />
        </mxCell>
        <mxCell id="ig4ZtLez6EBbR9WeV2WM-200" value="" style="line;strokeWidth=1;fillColor=none;align=left;verticalAlign=middle;spacingTop=-1;spacingLeft=3;spacingRight=3;rotatable=0;labelPosition=right;points=[];portConstraint=eastwest;" vertex="1" parent="ig4ZtLez6EBbR9WeV2WM-199">
          <mxGeometry y="26" width="160" height="8" as="geometry" />
        </mxCell>
        <mxCell id="ig4ZtLez6EBbR9WeV2WM-201" value="+ create_room(): Void&#xa;+ del_room(): Void&#xa;+ check_state(): Void" style="text;strokeColor=none;fillColor=none;align=left;verticalAlign=top;spacingLeft=4;spacingRight=4;overflow=hidden;rotatable=0;points=[[0,0.5],[1,0.5]];portConstraint=eastwest;" vertex="1" parent="ig4ZtLez6EBbR9WeV2WM-199">
          <mxGeometry y="34" width="160" height="50" as="geometry" />
        </mxCell>
        <mxCell id="ig4ZtLez6EBbR9WeV2WM-202" style="edgeStyle=orthogonalEdgeStyle;rounded=0;orthogonalLoop=1;jettySize=auto;html=1;endArrow=diamondThin;endFill=0;entryX=0.5;entryY=0;entryDx=0;entryDy=0;" edge="1" parent="uuYtuYXiBMt7Xo_ZA9Lb-1" source="ig4ZtLez6EBbR9WeV2WM-206" target="ig4ZtLez6EBbR9WeV2WM-199">
          <mxGeometry relative="1" as="geometry">
            <Array as="points">
              <mxPoint x="-363.5" y="120" />
              <mxPoint x="-453.5" y="120" />
            </Array>
          </mxGeometry>
        </mxCell>
        <mxCell id="ig4ZtLez6EBbR9WeV2WM-203" value="*" style="edgeLabel;html=1;align=center;verticalAlign=middle;resizable=0;points=[];" vertex="1" connectable="0" parent="ig4ZtLez6EBbR9WeV2WM-202">
          <mxGeometry x="-0.5069" relative="1" as="geometry">
            <mxPoint x="12" y="-22" as="offset" />
          </mxGeometry>
        </mxCell>
        <mxCell id="ig4ZtLez6EBbR9WeV2WM-204" value="- room_list" style="edgeLabel;html=1;align=center;verticalAlign=middle;resizable=0;points=[];" vertex="1" connectable="0" parent="ig4ZtLez6EBbR9WeV2WM-202">
          <mxGeometry x="-0.5069" relative="1" as="geometry">
            <mxPoint x="-24" y="-22" as="offset" />
          </mxGeometry>
        </mxCell>
        <mxCell id="ig4ZtLez6EBbR9WeV2WM-205" value="1" style="edgeLabel;html=1;align=center;verticalAlign=middle;resizable=0;points=[];" vertex="1" connectable="0" parent="ig4ZtLez6EBbR9WeV2WM-202">
          <mxGeometry x="0.6871" relative="1" as="geometry">
            <mxPoint x="-10" as="offset" />
          </mxGeometry>
        </mxCell>
        <mxCell id="ig4ZtLez6EBbR9WeV2WM-206" value="Room" style="swimlane;fontStyle=1;align=center;verticalAlign=top;childLayout=stackLayout;horizontal=1;startSize=26;horizontalStack=0;resizeParent=1;resizeParentMax=0;resizeLast=0;collapsible=1;marginBottom=0;" vertex="1" parent="uuYtuYXiBMt7Xo_ZA9Lb-1">
          <mxGeometry x="-413.5" y="30" width="170" height="60" as="geometry" />
        </mxCell>
        <mxCell id="ig4ZtLez6EBbR9WeV2WM-207" value="" style="line;strokeWidth=1;fillColor=none;align=left;verticalAlign=middle;spacingTop=-1;spacingLeft=3;spacingRight=3;rotatable=0;labelPosition=right;points=[];portConstraint=eastwest;" vertex="1" parent="ig4ZtLez6EBbR9WeV2WM-206">
          <mxGeometry y="26" width="170" height="8" as="geometry" />
        </mxCell>
        <mxCell id="ig4ZtLez6EBbR9WeV2WM-208" value="+ get_state(): Room_State" style="text;strokeColor=none;fillColor=none;align=left;verticalAlign=top;spacingLeft=4;spacingRight=4;overflow=hidden;rotatable=0;points=[[0,0.5],[1,0.5]];portConstraint=eastwest;" vertex="1" parent="ig4ZtLez6EBbR9WeV2WM-206">
          <mxGeometry y="34" width="170" height="26" as="geometry" />
        </mxCell>
        <mxCell id="ig4ZtLez6EBbR9WeV2WM-209" style="edgeStyle=orthogonalEdgeStyle;rounded=0;orthogonalLoop=1;jettySize=auto;html=1;endArrow=diamondThin;endFill=0;" edge="1" parent="uuYtuYXiBMt7Xo_ZA9Lb-1" source="ig4ZtLez6EBbR9WeV2WM-213">
          <mxGeometry relative="1" as="geometry">
            <mxPoint x="-303.5" y="90" as="targetPoint" />
            <Array as="points">
              <mxPoint x="-253.5" y="120" />
              <mxPoint x="-303.5" y="120" />
              <mxPoint x="-303.5" y="90" />
            </Array>
          </mxGeometry>
        </mxCell>
        <mxCell id="ig4ZtLez6EBbR9WeV2WM-210" value="1" style="edgeLabel;html=1;align=center;verticalAlign=middle;resizable=0;points=[];" vertex="1" connectable="0" parent="ig4ZtLez6EBbR9WeV2WM-209">
          <mxGeometry x="0.459" y="-1" relative="1" as="geometry">
            <mxPoint x="-9" y="-20" as="offset" />
          </mxGeometry>
        </mxCell>
        <mxCell id="ig4ZtLez6EBbR9WeV2WM-211" value="- state" style="edgeLabel;html=1;align=center;verticalAlign=middle;resizable=0;points=[];" vertex="1" connectable="0" parent="ig4ZtLez6EBbR9WeV2WM-209">
          <mxGeometry x="-0.8165" relative="1" as="geometry">
            <mxPoint x="20" as="offset" />
          </mxGeometry>
        </mxCell>
        <mxCell id="ig4ZtLez6EBbR9WeV2WM-212" value="1" style="edgeLabel;html=1;align=center;verticalAlign=middle;resizable=0;points=[];" vertex="1" connectable="0" parent="ig4ZtLez6EBbR9WeV2WM-209">
          <mxGeometry x="-0.8606" relative="1" as="geometry">
            <mxPoint x="-10" as="offset" />
          </mxGeometry>
        </mxCell>
        <mxCell id="ig4ZtLez6EBbR9WeV2WM-213" value="&lt;&lt;enumerate&gt;&gt;&#xa;Room_State" style="swimlane;fontStyle=1;align=center;verticalAlign=top;childLayout=stackLayout;horizontal=1;startSize=40;horizontalStack=0;resizeParent=1;resizeParentMax=0;resizeLast=0;collapsible=1;marginBottom=0;" vertex="1" parent="uuYtuYXiBMt7Xo_ZA9Lb-1">
          <mxGeometry x="-333.5" y="149" width="160" height="98" as="geometry" />
        </mxCell>
        <mxCell id="ig4ZtLez6EBbR9WeV2WM-214" value="waiting: Int=0&#xa;playing: Int=1&#xa;end: Int=2" style="text;strokeColor=none;fillColor=none;align=left;verticalAlign=top;spacingLeft=4;spacingRight=4;overflow=hidden;rotatable=0;points=[[0,0.5],[1,0.5]];portConstraint=eastwest;" vertex="1" parent="ig4ZtLez6EBbR9WeV2WM-213">
          <mxGeometry y="40" width="160" height="50" as="geometry" />
        </mxCell>
        <mxCell id="ig4ZtLez6EBbR9WeV2WM-215" value="" style="line;strokeWidth=1;fillColor=none;align=left;verticalAlign=middle;spacingTop=-1;spacingLeft=3;spacingRight=3;rotatable=0;labelPosition=right;points=[];portConstraint=eastwest;" vertex="1" parent="ig4ZtLez6EBbR9WeV2WM-213">
          <mxGeometry y="90" width="160" height="8" as="geometry" />
        </mxCell>
        <mxCell id="ig4ZtLez6EBbR9WeV2WM-216" value="Rocks" style="swimlane;fontStyle=1;align=center;verticalAlign=top;childLayout=stackLayout;horizontal=1;startSize=26;horizontalStack=0;resizeParent=1;resizeParentMax=0;resizeLast=0;collapsible=1;marginBottom=0;" vertex="1" parent="uuYtuYXiBMt7Xo_ZA9Lb-1">
          <mxGeometry x="-50" y="885.14" width="160" height="34" as="geometry" />
        </mxCell>
        <mxCell id="ig4ZtLez6EBbR9WeV2WM-217" value="" style="line;strokeWidth=1;fillColor=none;align=left;verticalAlign=middle;spacingTop=-1;spacingLeft=3;spacingRight=3;rotatable=0;labelPosition=right;points=[];portConstraint=eastwest;" vertex="1" parent="ig4ZtLez6EBbR9WeV2WM-216">
          <mxGeometry y="26" width="160" height="8" as="geometry" />
        </mxCell>
        <mxCell id="ig4ZtLez6EBbR9WeV2WM-218" value="Maps" style="swimlane;fontStyle=1;align=center;verticalAlign=top;childLayout=stackLayout;horizontal=1;startSize=26;horizontalStack=0;resizeParent=1;resizeParentMax=0;resizeLast=0;collapsible=1;marginBottom=0;" vertex="1" parent="uuYtuYXiBMt7Xo_ZA9Lb-1">
          <mxGeometry x="143.5" y="885.14" width="160" height="34" as="geometry" />
        </mxCell>
        <mxCell id="ig4ZtLez6EBbR9WeV2WM-219" value="" style="line;strokeWidth=1;fillColor=none;align=left;verticalAlign=middle;spacingTop=-1;spacingLeft=3;spacingRight=3;rotatable=0;labelPosition=right;points=[];portConstraint=eastwest;" vertex="1" parent="ig4ZtLez6EBbR9WeV2WM-218">
          <mxGeometry y="26" width="160" height="8" as="geometry" />
        </mxCell>
        <mxCell id="ig4ZtLez6EBbR9WeV2WM-220" style="edgeStyle=orthogonalEdgeStyle;rounded=0;orthogonalLoop=1;jettySize=auto;html=1;endArrow=block;endFill=0;" edge="1" parent="uuYtuYXiBMt7Xo_ZA9Lb-1" source="ig4ZtLez6EBbR9WeV2WM-216" target="ig4ZtLez6EBbR9WeV2WM-196">
          <mxGeometry relative="1" as="geometry">
            <mxPoint x="39.54000000000019" y="780.9839999999999" as="targetPoint" />
            <mxPoint x="60" y="870" as="sourcePoint" />
            <Array as="points">
              <mxPoint x="30" y="820" />
              <mxPoint x="30" y="820" />
            </Array>
          </mxGeometry>
        </mxCell>
        <mxCell id="ig4ZtLez6EBbR9WeV2WM-221" style="edgeStyle=orthogonalEdgeStyle;rounded=0;orthogonalLoop=1;jettySize=auto;html=1;endArrow=block;endFill=0;exitX=0.5;exitY=0;exitDx=0;exitDy=0;" edge="1" parent="uuYtuYXiBMt7Xo_ZA9Lb-1" source="ig4ZtLez6EBbR9WeV2WM-218" target="ig4ZtLez6EBbR9WeV2WM-196">
          <mxGeometry relative="1" as="geometry">
            <mxPoint x="75.00000000000023" y="780" as="targetPoint" />
            <mxPoint x="-64" y="866.5" as="sourcePoint" />
            <Array as="points">
              <mxPoint x="224" y="830" />
              <mxPoint x="60" y="830" />
            </Array>
          </mxGeometry>
        </mxCell>
        <mxCell id="ig4ZtLez6EBbR9WeV2WM-222" style="edgeStyle=orthogonalEdgeStyle;rounded=0;orthogonalLoop=1;jettySize=auto;html=1;endArrow=diamondThin;endFill=0;" edge="1" parent="uuYtuYXiBMt7Xo_ZA9Lb-1" source="ig4ZtLez6EBbR9WeV2WM-226" target="ig4ZtLez6EBbR9WeV2WM-196">
          <mxGeometry relative="1" as="geometry">
            <Array as="points">
              <mxPoint x="-139.5" y="830" />
              <mxPoint x="-13.5" y="830" />
            </Array>
            <mxPoint x="-13.5" y="780" as="targetPoint" />
          </mxGeometry>
        </mxCell>
        <mxCell id="ig4ZtLez6EBbR9WeV2WM-223" value="&lt;span style=&quot;font-size: 12px ; text-align: left ; background-color: rgb(248 , 249 , 250)&quot;&gt;+ action_type&lt;/span&gt;" style="edgeLabel;html=1;align=center;verticalAlign=middle;resizable=0;points=[];" vertex="1" connectable="0" parent="ig4ZtLez6EBbR9WeV2WM-222">
          <mxGeometry x="-0.8955" relative="1" as="geometry">
            <mxPoint x="36" y="4" as="offset" />
          </mxGeometry>
        </mxCell>
        <mxCell id="ig4ZtLez6EBbR9WeV2WM-224" value="1" style="edgeLabel;html=1;align=center;verticalAlign=middle;resizable=0;points=[];" vertex="1" connectable="0" parent="ig4ZtLez6EBbR9WeV2WM-222">
          <mxGeometry x="0.8586" y="1" relative="1" as="geometry">
            <mxPoint x="-9" as="offset" />
          </mxGeometry>
        </mxCell>
        <mxCell id="ig4ZtLez6EBbR9WeV2WM-225" value="1..2" style="edgeLabel;html=1;align=center;verticalAlign=middle;resizable=0;points=[];" vertex="1" connectable="0" parent="ig4ZtLez6EBbR9WeV2WM-222">
          <mxGeometry x="-0.8729" relative="1" as="geometry">
            <mxPoint x="-20" y="6" as="offset" />
          </mxGeometry>
        </mxCell>
        <mxCell id="ig4ZtLez6EBbR9WeV2WM-226" value="&lt;&lt;enumerate&gt;&gt;&#xa;Action_Type" style="swimlane;fontStyle=1;align=center;verticalAlign=top;childLayout=stackLayout;horizontal=1;startSize=40;horizontalStack=0;resizeParent=1;resizeParentMax=0;resizeLast=0;collapsible=1;marginBottom=0;" vertex="1" parent="uuYtuYXiBMt7Xo_ZA9Lb-1">
          <mxGeometry x="-220" y="885.14" width="160" height="128" as="geometry" />
        </mxCell>
        <mxCell id="ig4ZtLez6EBbR9WeV2WM-227" value="miner_lamp: Int=0&#xa;minecart: Int=1&#xa;mine_pick: Int=2&#xa;rocks: Int=3&#xa;map: Int=4" style="text;strokeColor=none;fillColor=none;align=left;verticalAlign=top;spacingLeft=4;spacingRight=4;overflow=hidden;rotatable=0;points=[[0,0.5],[1,0.5]];portConstraint=eastwest;" vertex="1" parent="ig4ZtLez6EBbR9WeV2WM-226">
          <mxGeometry y="40" width="160" height="80" as="geometry" />
        </mxCell>
        <mxCell id="ig4ZtLez6EBbR9WeV2WM-228" value="" style="line;strokeWidth=1;fillColor=none;align=left;verticalAlign=middle;spacingTop=-1;spacingLeft=3;spacingRight=3;rotatable=0;labelPosition=right;points=[];portConstraint=eastwest;" vertex="1" parent="ig4ZtLez6EBbR9WeV2WM-226">
          <mxGeometry y="120" width="160" height="8" as="geometry" />
        </mxCell>
        <mxCell id="ig4ZtLez6EBbR9WeV2WM-229" style="edgeStyle=orthogonalEdgeStyle;rounded=0;orthogonalLoop=1;jettySize=auto;html=1;endArrow=diamondThin;endFill=0;exitX=0.5;exitY=0;exitDx=0;exitDy=0;" edge="1" parent="uuYtuYXiBMt7Xo_ZA9Lb-1" source="ig4ZtLez6EBbR9WeV2WM-233" target="ig4ZtLez6EBbR9WeV2WM-191">
          <mxGeometry relative="1" as="geometry">
            <mxPoint x="-217" y="750" as="targetPoint" />
            <mxPoint x="-247.5" y="840" as="sourcePoint" />
            <Array as="points">
              <mxPoint x="-317" y="839" />
              <mxPoint x="-217" y="839" />
            </Array>
          </mxGeometry>
        </mxCell>
        <mxCell id="ig4ZtLez6EBbR9WeV2WM-230" value="&lt;span style=&quot;font-size: 12px ; text-align: left ; background-color: rgb(248 , 249 , 250)&quot;&gt;+ road_type&lt;/span&gt;" style="edgeLabel;html=1;align=center;verticalAlign=middle;resizable=0;points=[];" vertex="1" connectable="0" parent="ig4ZtLez6EBbR9WeV2WM-229">
          <mxGeometry x="-0.907" relative="1" as="geometry">
            <mxPoint x="38" y="1" as="offset" />
          </mxGeometry>
        </mxCell>
        <mxCell id="ig4ZtLez6EBbR9WeV2WM-231" value="1" style="edgeLabel;html=1;align=center;verticalAlign=middle;resizable=0;points=[];" vertex="1" connectable="0" parent="ig4ZtLez6EBbR9WeV2WM-229">
          <mxGeometry x="-0.907" y="1" relative="1" as="geometry">
            <mxPoint x="-6" y="1" as="offset" />
          </mxGeometry>
        </mxCell>
        <mxCell id="ig4ZtLez6EBbR9WeV2WM-232" value="1" style="edgeLabel;html=1;align=center;verticalAlign=middle;resizable=0;points=[];" vertex="1" connectable="0" parent="ig4ZtLez6EBbR9WeV2WM-229">
          <mxGeometry x="0.8762" y="-2" relative="1" as="geometry">
            <mxPoint x="-12" as="offset" />
          </mxGeometry>
        </mxCell>
        <mxCell id="ig4ZtLez6EBbR9WeV2WM-233" value="&lt;&lt;enumerate&gt;&gt;&#xa;Road_Type" style="swimlane;fontStyle=1;align=center;verticalAlign=top;childLayout=stackLayout;horizontal=1;startSize=40;horizontalStack=0;resizeParent=1;resizeParentMax=0;resizeLast=0;collapsible=1;marginBottom=0;" vertex="1" parent="uuYtuYXiBMt7Xo_ZA9Lb-1">
          <mxGeometry x="-397.5" y="884.47" width="160" height="98" as="geometry" />
        </mxCell>
        <mxCell id="ig4ZtLez6EBbR9WeV2WM-234" value="start: Int=0&#xa;normal: Int=1&#xa;end: Int=2" style="text;strokeColor=none;fillColor=none;align=left;verticalAlign=top;spacingLeft=4;spacingRight=4;overflow=hidden;rotatable=0;points=[[0,0.5],[1,0.5]];portConstraint=eastwest;" vertex="1" parent="ig4ZtLez6EBbR9WeV2WM-233">
          <mxGeometry y="40" width="160" height="50" as="geometry" />
        </mxCell>
        <mxCell id="ig4ZtLez6EBbR9WeV2WM-235" value="" style="line;strokeWidth=1;fillColor=none;align=left;verticalAlign=middle;spacingTop=-1;spacingLeft=3;spacingRight=3;rotatable=0;labelPosition=right;points=[];portConstraint=eastwest;" vertex="1" parent="ig4ZtLez6EBbR9WeV2WM-233">
          <mxGeometry y="90" width="160" height="8" as="geometry" />
        </mxCell>
        <mxCell id="ig4ZtLez6EBbR9WeV2WM-236" style="edgeStyle=orthogonalEdgeStyle;rounded=0;orthogonalLoop=1;jettySize=auto;html=1;endArrow=diamondThin;endFill=0;" edge="1" parent="uuYtuYXiBMt7Xo_ZA9Lb-1" source="ig4ZtLez6EBbR9WeV2WM-237" target="ig4ZtLez6EBbR9WeV2WM-175">
          <mxGeometry relative="1" as="geometry">
            <Array as="points">
              <mxPoint x="450" y="505" />
            </Array>
          </mxGeometry>
        </mxCell>
        <mxCell id="ig4ZtLez6EBbR9WeV2WM-237" value="Card_Activate" style="swimlane;fontStyle=1;align=center;verticalAlign=top;childLayout=stackLayout;horizontal=1;startSize=26;horizontalStack=0;resizeParent=1;resizeParentMax=0;resizeLast=0;collapsible=1;marginBottom=0;" vertex="1" parent="uuYtuYXiBMt7Xo_ZA9Lb-1">
          <mxGeometry x="380" y="510" width="160" height="60" as="geometry" />
        </mxCell>
        <mxCell id="ig4ZtLez6EBbR9WeV2WM-238" value="" style="line;strokeWidth=1;fillColor=none;align=left;verticalAlign=middle;spacingTop=-1;spacingLeft=3;spacingRight=3;rotatable=0;labelPosition=right;points=[];portConstraint=eastwest;" vertex="1" parent="ig4ZtLez6EBbR9WeV2WM-237">
          <mxGeometry y="26" width="160" height="8" as="geometry" />
        </mxCell>
        <mxCell id="ig4ZtLez6EBbR9WeV2WM-239" value="+ activate(): Void" style="text;strokeColor=none;fillColor=none;align=left;verticalAlign=top;spacingLeft=4;spacingRight=4;overflow=hidden;rotatable=0;points=[[0,0.5],[1,0.5]];portConstraint=eastwest;" vertex="1" parent="ig4ZtLez6EBbR9WeV2WM-237">
          <mxGeometry y="34" width="160" height="26" as="geometry" />
        </mxCell>
        <mxCell id="ig4ZtLez6EBbR9WeV2WM-240" style="edgeStyle=orthogonalEdgeStyle;rounded=0;orthogonalLoop=1;jettySize=auto;html=1;endArrow=block;endFill=0;" edge="1" parent="uuYtuYXiBMt7Xo_ZA9Lb-1" source="ig4ZtLez6EBbR9WeV2WM-241" target="ig4ZtLez6EBbR9WeV2WM-237">
          <mxGeometry relative="1" as="geometry">
            <mxPoint x="444" y="590" as="targetPoint" />
            <Array as="points">
              <mxPoint x="564" y="620" />
              <mxPoint x="460" y="620" />
            </Array>
          </mxGeometry>
        </mxCell>
        <mxCell id="ig4ZtLez6EBbR9WeV2WM-241" value="Destroy" style="swimlane;fontStyle=1;align=center;verticalAlign=top;childLayout=stackLayout;horizontal=1;startSize=26;horizontalStack=0;resizeParent=1;resizeParentMax=0;resizeLast=0;collapsible=1;marginBottom=0;" vertex="1" parent="uuYtuYXiBMt7Xo_ZA9Lb-1">
          <mxGeometry x="484" y="642" width="160" height="60" as="geometry" />
        </mxCell>
        <mxCell id="ig4ZtLez6EBbR9WeV2WM-242" value="" style="line;strokeWidth=1;fillColor=none;align=left;verticalAlign=middle;spacingTop=-1;spacingLeft=3;spacingRight=3;rotatable=0;labelPosition=right;points=[];portConstraint=eastwest;" vertex="1" parent="ig4ZtLez6EBbR9WeV2WM-241">
          <mxGeometry y="26" width="160" height="8" as="geometry" />
        </mxCell>
        <mxCell id="ig4ZtLez6EBbR9WeV2WM-243" value="+ activate(): Void" style="text;strokeColor=none;fillColor=none;align=left;verticalAlign=top;spacingLeft=4;spacingRight=4;overflow=hidden;rotatable=0;points=[[0,0.5],[1,0.5]];portConstraint=eastwest;" vertex="1" parent="ig4ZtLez6EBbR9WeV2WM-241">
          <mxGeometry y="34" width="160" height="26" as="geometry" />
        </mxCell>
        <mxCell id="ig4ZtLez6EBbR9WeV2WM-244" style="edgeStyle=orthogonalEdgeStyle;rounded=0;orthogonalLoop=1;jettySize=auto;html=1;endArrow=block;endFill=0;" edge="1" parent="uuYtuYXiBMt7Xo_ZA9Lb-1" source="ig4ZtLez6EBbR9WeV2WM-245" target="ig4ZtLez6EBbR9WeV2WM-237">
          <mxGeometry relative="1" as="geometry">
            <mxPoint x="444" y="590" as="targetPoint" />
            <Array as="points">
              <mxPoint x="734" y="620" />
              <mxPoint x="460" y="620" />
            </Array>
          </mxGeometry>
        </mxCell>
        <mxCell id="ig4ZtLez6EBbR9WeV2WM-245" value="Peek" style="swimlane;fontStyle=1;align=center;verticalAlign=top;childLayout=stackLayout;horizontal=1;startSize=26;horizontalStack=0;resizeParent=1;resizeParentMax=0;resizeLast=0;collapsible=1;marginBottom=0;" vertex="1" parent="uuYtuYXiBMt7Xo_ZA9Lb-1">
          <mxGeometry x="654" y="642" width="160" height="60" as="geometry" />
        </mxCell>
        <mxCell id="ig4ZtLez6EBbR9WeV2WM-246" value="" style="line;strokeWidth=1;fillColor=none;align=left;verticalAlign=middle;spacingTop=-1;spacingLeft=3;spacingRight=3;rotatable=0;labelPosition=right;points=[];portConstraint=eastwest;" vertex="1" parent="ig4ZtLez6EBbR9WeV2WM-245">
          <mxGeometry y="26" width="160" height="8" as="geometry" />
        </mxCell>
        <mxCell id="ig4ZtLez6EBbR9WeV2WM-247" value="+activate(): Void" style="text;strokeColor=none;fillColor=none;align=left;verticalAlign=top;spacingLeft=4;spacingRight=4;overflow=hidden;rotatable=0;points=[[0,0.5],[1,0.5]];portConstraint=eastwest;" vertex="1" parent="ig4ZtLez6EBbR9WeV2WM-245">
          <mxGeometry y="34" width="160" height="26" as="geometry" />
        </mxCell>
        <mxCell id="ig4ZtLez6EBbR9WeV2WM-248" style="edgeStyle=orthogonalEdgeStyle;rounded=0;orthogonalLoop=1;jettySize=auto;html=1;endArrow=block;endFill=0;" edge="1" parent="uuYtuYXiBMt7Xo_ZA9Lb-1" source="ig4ZtLez6EBbR9WeV2WM-249" target="ig4ZtLez6EBbR9WeV2WM-237">
          <mxGeometry relative="1" as="geometry">
            <mxPoint x="444" y="590" as="targetPoint" />
            <Array as="points">
              <mxPoint x="218" y="620" />
              <mxPoint x="460" y="620" />
            </Array>
          </mxGeometry>
        </mxCell>
        <mxCell id="ig4ZtLez6EBbR9WeV2WM-249" value="Dig" style="swimlane;fontStyle=1;align=center;verticalAlign=top;childLayout=stackLayout;horizontal=1;startSize=26;horizontalStack=0;resizeParent=1;resizeParentMax=0;resizeLast=0;collapsible=1;marginBottom=0;" vertex="1" parent="uuYtuYXiBMt7Xo_ZA9Lb-1">
          <mxGeometry x="143.5" y="642" width="160" height="60" as="geometry" />
        </mxCell>
        <mxCell id="ig4ZtLez6EBbR9WeV2WM-250" value="" style="line;strokeWidth=1;fillColor=none;align=left;verticalAlign=middle;spacingTop=-1;spacingLeft=3;spacingRight=3;rotatable=0;labelPosition=right;points=[];portConstraint=eastwest;" vertex="1" parent="ig4ZtLez6EBbR9WeV2WM-249">
          <mxGeometry y="26" width="160" height="8" as="geometry" />
        </mxCell>
        <mxCell id="ig4ZtLez6EBbR9WeV2WM-251" value="+ activate(): Void" style="text;strokeColor=none;fillColor=none;align=left;verticalAlign=top;spacingLeft=4;spacingRight=4;overflow=hidden;rotatable=0;points=[[0,0.5],[1,0.5]];portConstraint=eastwest;" vertex="1" parent="ig4ZtLez6EBbR9WeV2WM-249">
          <mxGeometry y="34" width="160" height="26" as="geometry" />
        </mxCell>
        <mxCell id="ig4ZtLez6EBbR9WeV2WM-252" style="edgeStyle=orthogonalEdgeStyle;rounded=0;orthogonalLoop=1;jettySize=auto;html=1;endArrow=block;endFill=0;" edge="1" parent="uuYtuYXiBMt7Xo_ZA9Lb-1" source="ig4ZtLez6EBbR9WeV2WM-253" target="ig4ZtLez6EBbR9WeV2WM-237">
          <mxGeometry relative="1" as="geometry">
            <mxPoint x="444" y="590" as="targetPoint" />
            <Array as="points">
              <mxPoint x="394" y="620" />
              <mxPoint x="460" y="620" />
            </Array>
          </mxGeometry>
        </mxCell>
        <mxCell id="ig4ZtLez6EBbR9WeV2WM-253" value="Influence" style="swimlane;fontStyle=1;align=center;verticalAlign=top;childLayout=stackLayout;horizontal=1;startSize=26;horizontalStack=0;resizeParent=1;resizeParentMax=0;resizeLast=0;collapsible=1;marginBottom=0;" vertex="1" parent="uuYtuYXiBMt7Xo_ZA9Lb-1">
          <mxGeometry x="314" y="642" width="160" height="60" as="geometry" />
        </mxCell>
        <mxCell id="ig4ZtLez6EBbR9WeV2WM-254" value="" style="line;strokeWidth=1;fillColor=none;align=left;verticalAlign=middle;spacingTop=-1;spacingLeft=3;spacingRight=3;rotatable=0;labelPosition=right;points=[];portConstraint=eastwest;" vertex="1" parent="ig4ZtLez6EBbR9WeV2WM-253">
          <mxGeometry y="26" width="160" height="8" as="geometry" />
        </mxCell>
        <mxCell id="ig4ZtLez6EBbR9WeV2WM-255" value="+ activate(): Void" style="text;strokeColor=none;fillColor=none;align=left;verticalAlign=top;spacingLeft=4;spacingRight=4;overflow=hidden;rotatable=0;points=[[0,0.5],[1,0.5]];portConstraint=eastwest;" vertex="1" parent="ig4ZtLez6EBbR9WeV2WM-253">
          <mxGeometry y="34" width="160" height="26" as="geometry" />
        </mxCell>
      </root>
    </mxGraphModel>
  </diagram>
  <diagram id="dy9fkZR1wP05GNhbUJrK" name="Page-6">
    <mxGraphModel dx="1038" dy="548" grid="1" gridSize="10" guides="1" tooltips="1" connect="1" arrows="1" fold="1" page="1" pageScale="1" pageWidth="1600" pageHeight="900" math="0" shadow="0">
      <root>
        <mxCell id="R7GNkkLH_jsWwi8psKVv-0" />
        <mxCell id="R7GNkkLH_jsWwi8psKVv-1" parent="R7GNkkLH_jsWwi8psKVv-0" />
        <mxCell id="syfnube15VQFn80s3zHn-0" value="Game_Controller" style="swimlane;fontStyle=1;align=center;verticalAlign=top;childLayout=stackLayout;horizontal=1;startSize=26;horizontalStack=0;resizeParent=1;resizeParentMax=0;resizeLast=0;collapsible=1;marginBottom=0;" parent="R7GNkkLH_jsWwi8psKVv-1" vertex="1">
          <mxGeometry x="260" y="180" width="250" height="230" as="geometry" />
        </mxCell>
        <mxCell id="syfnube15VQFn80s3zHn-1" value="- player_list: Player[3..10]&#xa;- round: Int&#xa;- game_state: State&#xa;- card_pool: Card[0..71]&#xa;- fold_deck: Card[0..71]" style="text;strokeColor=none;fillColor=none;align=left;verticalAlign=top;spacingLeft=4;spacingRight=4;overflow=hidden;rotatable=0;points=[[0,0.5],[1,0.5]];portConstraint=eastwest;" parent="syfnube15VQFn80s3zHn-0" vertex="1">
          <mxGeometry y="26" width="250" height="84" as="geometry" />
        </mxCell>
        <mxCell id="syfnube15VQFn80s3zHn-2" value="" style="line;strokeWidth=1;fillColor=none;align=left;verticalAlign=middle;spacingTop=-1;spacingLeft=3;spacingRight=3;rotatable=0;labelPosition=right;points=[];portConstraint=eastwest;" parent="syfnube15VQFn80s3zHn-0" vertex="1">
          <mxGeometry y="110" width="250" height="8" as="geometry" />
        </mxCell>
        <mxCell id="syfnube15VQFn80s3zHn-3" value="+ state_control(): Void&#xa;+ reset_board(board): Void&#xa;+ set_player_role(List[Player]): Void&#xa;+ set_player_state(Player): Void&#xa;+ check_legality(Card, Card): Bool&#xa;+ deal_card(State, List[Player]): Void&#xa;+ calc_rank(List[Player]): Void" style="text;strokeColor=none;fillColor=none;align=left;verticalAlign=top;spacingLeft=4;spacingRight=4;overflow=hidden;rotatable=0;points=[[0,0.5],[1,0.5]];portConstraint=eastwest;" parent="syfnube15VQFn80s3zHn-0" vertex="1">
          <mxGeometry y="118" width="250" height="112" as="geometry" />
        </mxCell>
        <mxCell id="syfnube15VQFn80s3zHn-4" value="Player" style="swimlane;fontStyle=1;align=center;verticalAlign=top;childLayout=stackLayout;horizontal=1;startSize=26;horizontalStack=0;resizeParent=1;resizeParentMax=0;resizeLast=0;collapsible=1;marginBottom=0;" parent="R7GNkkLH_jsWwi8psKVv-1" vertex="1">
          <mxGeometry x="580" y="240" width="160" height="160" as="geometry" />
        </mxCell>
        <mxCell id="syfnube15VQFn80s3zHn-5" value="- role: identity&#xa;- hand_cards: Card[0..6]&#xa;- action_state: Action[0..3]&#xa;- point: Int&#xa;+ num_hand_cards: Int" style="text;strokeColor=none;fillColor=none;align=left;verticalAlign=top;spacingLeft=4;spacingRight=4;overflow=hidden;rotatable=0;points=[[0,0.5],[1,0.5]];portConstraint=eastwest;" parent="syfnube15VQFn80s3zHn-4" vertex="1">
          <mxGeometry y="26" width="160" height="74" as="geometry" />
        </mxCell>
        <mxCell id="syfnube15VQFn80s3zHn-6" value="" style="line;strokeWidth=1;fillColor=none;align=left;verticalAlign=middle;spacingTop=-1;spacingLeft=3;spacingRight=3;rotatable=0;labelPosition=right;points=[];portConstraint=eastwest;" parent="syfnube15VQFn80s3zHn-4" vertex="1">
          <mxGeometry y="100" width="160" height="8" as="geometry" />
        </mxCell>
        <mxCell id="syfnube15VQFn80s3zHn-7" value="+ play_card(Card): Void&#xa;+ fold_card(Card): Void&#xa;+ select_gold(Card): Void" style="text;strokeColor=none;fillColor=none;align=left;verticalAlign=top;spacingLeft=4;spacingRight=4;overflow=hidden;rotatable=0;points=[[0,0.5],[1,0.5]];portConstraint=eastwest;" parent="syfnube15VQFn80s3zHn-4" vertex="1">
          <mxGeometry y="108" width="160" height="52" as="geometry" />
        </mxCell>
        <mxCell id="syfnube15VQFn80s3zHn-8" value="board" style="swimlane;fontStyle=1;align=center;verticalAlign=top;childLayout=stackLayout;horizontal=1;startSize=26;horizontalStack=0;resizeParent=1;resizeParentMax=0;resizeLast=0;collapsible=1;marginBottom=0;" parent="R7GNkkLH_jsWwi8psKVv-1" vertex="1">
          <mxGeometry x="80" y="220" width="160" height="60" as="geometry" />
        </mxCell>
        <mxCell id="syfnube15VQFn80s3zHn-9" value="+ map: Card[5][9]" style="text;strokeColor=none;fillColor=none;align=left;verticalAlign=top;spacingLeft=4;spacingRight=4;overflow=hidden;rotatable=0;points=[[0,0.5],[1,0.5]];portConstraint=eastwest;" parent="syfnube15VQFn80s3zHn-8" vertex="1">
          <mxGeometry y="26" width="160" height="26" as="geometry" />
        </mxCell>
        <mxCell id="syfnube15VQFn80s3zHn-10" value="" style="line;strokeWidth=1;fillColor=none;align=left;verticalAlign=middle;spacingTop=-1;spacingLeft=3;spacingRight=3;rotatable=0;labelPosition=right;points=[];portConstraint=eastwest;" parent="syfnube15VQFn80s3zHn-8" vertex="1">
          <mxGeometry y="52" width="160" height="8" as="geometry" />
        </mxCell>
        <mxCell id="syfnube15VQFn80s3zHn-11" value="Card" style="swimlane;fontStyle=1;align=center;verticalAlign=top;childLayout=stackLayout;horizontal=1;startSize=26;horizontalStack=0;resizeParent=1;resizeParentMax=0;resizeLast=0;collapsible=1;marginBottom=0;" parent="R7GNkkLH_jsWwi8psKVv-1" vertex="1">
          <mxGeometry x="580" y="500" width="160" height="34" as="geometry" />
        </mxCell>
        <mxCell id="syfnube15VQFn80s3zHn-12" value="" style="line;strokeWidth=1;fillColor=none;align=left;verticalAlign=middle;spacingTop=-1;spacingLeft=3;spacingRight=3;rotatable=0;labelPosition=right;points=[];portConstraint=eastwest;" parent="syfnube15VQFn80s3zHn-11" vertex="1">
          <mxGeometry y="26" width="160" height="8" as="geometry" />
        </mxCell>
        <mxCell id="syfnube15VQFn80s3zHn-13" value="room_controller" style="swimlane;fontStyle=1;align=center;verticalAlign=top;childLayout=stackLayout;horizontal=1;startSize=26;horizontalStack=0;resizeParent=1;resizeParentMax=0;resizeLast=0;collapsible=1;marginBottom=0;" parent="R7GNkkLH_jsWwi8psKVv-1" vertex="1">
          <mxGeometry x="80" y="300" width="160" height="110" as="geometry" />
        </mxCell>
        <mxCell id="syfnube15VQFn80s3zHn-14" value="- room_list: Room[*]" style="text;strokeColor=none;fillColor=none;align=left;verticalAlign=top;spacingLeft=4;spacingRight=4;overflow=hidden;rotatable=0;points=[[0,0.5],[1,0.5]];portConstraint=eastwest;" parent="syfnube15VQFn80s3zHn-13" vertex="1">
          <mxGeometry y="26" width="160" height="26" as="geometry" />
        </mxCell>
        <mxCell id="syfnube15VQFn80s3zHn-15" value="" style="line;strokeWidth=1;fillColor=none;align=left;verticalAlign=middle;spacingTop=-1;spacingLeft=3;spacingRight=3;rotatable=0;labelPosition=right;points=[];portConstraint=eastwest;" parent="syfnube15VQFn80s3zHn-13" vertex="1">
          <mxGeometry y="52" width="160" height="8" as="geometry" />
        </mxCell>
        <mxCell id="syfnube15VQFn80s3zHn-16" value="+ create_room(): Void&#xa;+ del_room(): Void&#xa;+ check_state(): Void" style="text;strokeColor=none;fillColor=none;align=left;verticalAlign=top;spacingLeft=4;spacingRight=4;overflow=hidden;rotatable=0;points=[[0,0.5],[1,0.5]];portConstraint=eastwest;" parent="syfnube15VQFn80s3zHn-13" vertex="1">
          <mxGeometry y="60" width="160" height="50" as="geometry" />
        </mxCell>
        <mxCell id="syfnube15VQFn80s3zHn-17" style="rounded=0;orthogonalLoop=1;jettySize=auto;html=1;entryX=0.5;entryY=1;entryDx=0;entryDy=0;endArrow=block;endFill=0;exitX=0.5;exitY=0;exitDx=0;exitDy=0;" parent="R7GNkkLH_jsWwi8psKVv-1" source="syfnube15VQFn80s3zHn-52" target="syfnube15VQFn80s3zHn-11" edge="1">
          <mxGeometry relative="1" as="geometry">
            <mxPoint x="660" y="630" as="sourcePoint" />
          </mxGeometry>
        </mxCell>
        <mxCell id="syfnube15VQFn80s3zHn-18" style="rounded=0;orthogonalLoop=1;jettySize=auto;html=1;endArrow=block;endFill=0;entryX=0.75;entryY=1;entryDx=0;entryDy=0;exitX=0.5;exitY=0;exitDx=0;exitDy=0;edgeStyle=orthogonalEdgeStyle;" parent="R7GNkkLH_jsWwi8psKVv-1" source="syfnube15VQFn80s3zHn-48" target="syfnube15VQFn80s3zHn-11" edge="1">
          <mxGeometry relative="1" as="geometry">
            <mxPoint x="680" y="510" as="targetPoint" />
            <mxPoint x="850" y="630" as="sourcePoint" />
          </mxGeometry>
        </mxCell>
        <mxCell id="syfnube15VQFn80s3zHn-19" style="rounded=0;orthogonalLoop=1;jettySize=auto;html=1;entryX=0.25;entryY=1;entryDx=0;entryDy=0;endArrow=block;endFill=0;exitX=0.5;exitY=0;exitDx=0;exitDy=0;edgeStyle=orthogonalEdgeStyle;" parent="R7GNkkLH_jsWwi8psKVv-1" source="syfnube15VQFn80s3zHn-29" target="syfnube15VQFn80s3zHn-11" edge="1">
          <mxGeometry relative="1" as="geometry">
            <mxPoint x="529.7142857142858" y="630" as="sourcePoint" />
          </mxGeometry>
        </mxCell>
        <mxCell id="syfnube15VQFn80s3zHn-20" value="&lt;&lt;enumerate&gt;&gt;&#xa;Action_Type" style="swimlane;fontStyle=1;align=center;verticalAlign=top;childLayout=stackLayout;horizontal=1;startSize=40;horizontalStack=0;resizeParent=1;resizeParentMax=0;resizeLast=0;collapsible=1;marginBottom=0;" parent="R7GNkkLH_jsWwi8psKVv-1" vertex="1">
          <mxGeometry x="250" y="20" width="160" height="128" as="geometry" />
        </mxCell>
        <mxCell id="syfnube15VQFn80s3zHn-21" value="miner_lamp: Int=0&#xa;minecart: Int=1&#xa;mine_pick: Int=2&#xa;rocks: Int=3&#xa;map: Int=4" style="text;strokeColor=none;fillColor=none;align=left;verticalAlign=top;spacingLeft=4;spacingRight=4;overflow=hidden;rotatable=0;points=[[0,0.5],[1,0.5]];portConstraint=eastwest;" parent="syfnube15VQFn80s3zHn-20" vertex="1">
          <mxGeometry y="40" width="160" height="80" as="geometry" />
        </mxCell>
        <mxCell id="syfnube15VQFn80s3zHn-22" value="" style="line;strokeWidth=1;fillColor=none;align=left;verticalAlign=middle;spacingTop=-1;spacingLeft=3;spacingRight=3;rotatable=0;labelPosition=right;points=[];portConstraint=eastwest;" parent="syfnube15VQFn80s3zHn-20" vertex="1">
          <mxGeometry y="120" width="160" height="8" as="geometry" />
        </mxCell>
        <mxCell id="syfnube15VQFn80s3zHn-23" value="&lt;&lt;enumerate&gt;&gt;&#xa;State" style="swimlane;fontStyle=1;align=center;verticalAlign=top;childLayout=stackLayout;horizontal=1;startSize=40;horizontalStack=0;resizeParent=1;resizeParentMax=0;resizeLast=0;collapsible=1;marginBottom=0;" parent="R7GNkkLH_jsWwi8psKVv-1" vertex="1">
          <mxGeometry x="80" y="20" width="160" height="108" as="geometry" />
        </mxCell>
        <mxCell id="syfnube15VQFn80s3zHn-24" value="reset: Int=0&#xa;play: Int=1&#xa;game_point: Int=2&#xa;set_point: Int=3" style="text;strokeColor=none;fillColor=none;align=left;verticalAlign=top;spacingLeft=4;spacingRight=4;overflow=hidden;rotatable=0;points=[[0,0.5],[1,0.5]];portConstraint=eastwest;" parent="syfnube15VQFn80s3zHn-23" vertex="1">
          <mxGeometry y="40" width="160" height="60" as="geometry" />
        </mxCell>
        <mxCell id="syfnube15VQFn80s3zHn-25" value="" style="line;strokeWidth=1;fillColor=none;align=left;verticalAlign=middle;spacingTop=-1;spacingLeft=3;spacingRight=3;rotatable=0;labelPosition=right;points=[];portConstraint=eastwest;" parent="syfnube15VQFn80s3zHn-23" vertex="1">
          <mxGeometry y="100" width="160" height="8" as="geometry" />
        </mxCell>
        <mxCell id="syfnube15VQFn80s3zHn-26" value="&lt;&lt;enumerate&gt;&gt;&#xa;Road_Type" style="swimlane;fontStyle=1;align=center;verticalAlign=top;childLayout=stackLayout;horizontal=1;startSize=40;horizontalStack=0;resizeParent=1;resizeParentMax=0;resizeLast=0;collapsible=1;marginBottom=0;" parent="R7GNkkLH_jsWwi8psKVv-1" vertex="1">
          <mxGeometry x="420" y="20" width="160" height="98" as="geometry" />
        </mxCell>
        <mxCell id="syfnube15VQFn80s3zHn-27" value="start: Int=0&#xa;normal: Int=1&#xa;end: Int=2" style="text;strokeColor=none;fillColor=none;align=left;verticalAlign=top;spacingLeft=4;spacingRight=4;overflow=hidden;rotatable=0;points=[[0,0.5],[1,0.5]];portConstraint=eastwest;" parent="syfnube15VQFn80s3zHn-26" vertex="1">
          <mxGeometry y="40" width="160" height="50" as="geometry" />
        </mxCell>
        <mxCell id="syfnube15VQFn80s3zHn-28" value="" style="line;strokeWidth=1;fillColor=none;align=left;verticalAlign=middle;spacingTop=-1;spacingLeft=3;spacingRight=3;rotatable=0;labelPosition=right;points=[];portConstraint=eastwest;" parent="syfnube15VQFn80s3zHn-26" vertex="1">
          <mxGeometry y="90" width="160" height="8" as="geometry" />
        </mxCell>
        <mxCell id="syfnube15VQFn80s3zHn-29" value="Identity" style="swimlane;fontStyle=1;align=center;verticalAlign=top;childLayout=stackLayout;horizontal=1;startSize=26;horizontalStack=0;resizeParent=1;resizeParentMax=0;resizeLast=0;collapsible=1;marginBottom=0;" parent="R7GNkkLH_jsWwi8psKVv-1" vertex="1">
          <mxGeometry x="390" y="630" width="160" height="86" as="geometry" />
        </mxCell>
        <mxCell id="syfnube15VQFn80s3zHn-30" value="- is_dwarve: Bool" style="text;strokeColor=none;fillColor=none;align=left;verticalAlign=top;spacingLeft=4;spacingRight=4;overflow=hidden;rotatable=0;points=[[0,0.5],[1,0.5]];portConstraint=eastwest;" parent="syfnube15VQFn80s3zHn-29" vertex="1">
          <mxGeometry y="26" width="160" height="26" as="geometry" />
        </mxCell>
        <mxCell id="syfnube15VQFn80s3zHn-31" value="" style="line;strokeWidth=1;fillColor=none;align=left;verticalAlign=middle;spacingTop=-1;spacingLeft=3;spacingRight=3;rotatable=0;labelPosition=right;points=[];portConstraint=eastwest;" parent="syfnube15VQFn80s3zHn-29" vertex="1">
          <mxGeometry y="52" width="160" height="8" as="geometry" />
        </mxCell>
        <mxCell id="syfnube15VQFn80s3zHn-32" value="+ get_type(): Bool" style="text;strokeColor=none;fillColor=none;align=left;verticalAlign=top;spacingLeft=4;spacingRight=4;overflow=hidden;rotatable=0;points=[[0,0.5],[1,0.5]];portConstraint=eastwest;" parent="syfnube15VQFn80s3zHn-29" vertex="1">
          <mxGeometry y="60" width="160" height="26" as="geometry" />
        </mxCell>
        <mxCell id="syfnube15VQFn80s3zHn-33" style="rounded=0;orthogonalLoop=1;jettySize=auto;html=1;endArrow=block;endFill=0;exitX=0.5;exitY=0;exitDx=0;exitDy=0;edgeStyle=orthogonalEdgeStyle;entryX=0.251;entryY=1.013;entryDx=0;entryDy=0;entryPerimeter=0;" parent="R7GNkkLH_jsWwi8psKVv-1" source="syfnube15VQFn80s3zHn-34" target="syfnube15VQFn80s3zHn-55" edge="1">
          <mxGeometry relative="1" as="geometry">
            <mxPoint x="640" y="740" as="targetPoint" />
            <Array as="points">
              <mxPoint x="565" y="774" />
              <mxPoint x="615" y="774" />
              <mxPoint x="615" y="760" />
              <mxPoint x="615" y="760" />
            </Array>
          </mxGeometry>
        </mxCell>
        <mxCell id="syfnube15VQFn80s3zHn-34" value="Rocks" style="swimlane;fontStyle=1;align=center;verticalAlign=top;childLayout=stackLayout;horizontal=1;startSize=26;horizontalStack=0;resizeParent=1;resizeParentMax=0;resizeLast=0;collapsible=1;marginBottom=0;" parent="R7GNkkLH_jsWwi8psKVv-1" vertex="1">
          <mxGeometry x="485" y="810" width="160" height="60" as="geometry" />
        </mxCell>
        <mxCell id="syfnube15VQFn80s3zHn-35" value="" style="line;strokeWidth=1;fillColor=none;align=left;verticalAlign=middle;spacingTop=-1;spacingLeft=3;spacingRight=3;rotatable=0;labelPosition=right;points=[];portConstraint=eastwest;" parent="syfnube15VQFn80s3zHn-34" vertex="1">
          <mxGeometry y="26" width="160" height="8" as="geometry" />
        </mxCell>
        <mxCell id="syfnube15VQFn80s3zHn-36" value="+ destroy_road(): Void" style="text;strokeColor=none;fillColor=none;align=left;verticalAlign=top;spacingLeft=4;spacingRight=4;overflow=hidden;rotatable=0;points=[[0,0.5],[1,0.5]];portConstraint=eastwest;" parent="syfnube15VQFn80s3zHn-34" vertex="1">
          <mxGeometry y="34" width="160" height="26" as="geometry" />
        </mxCell>
        <mxCell id="syfnube15VQFn80s3zHn-37" style="edgeStyle=orthogonalEdgeStyle;rounded=0;orthogonalLoop=1;jettySize=auto;html=1;endArrow=block;endFill=0;entryX=0.761;entryY=1.003;entryDx=0;entryDy=0;entryPerimeter=0;" parent="R7GNkkLH_jsWwi8psKVv-1" source="syfnube15VQFn80s3zHn-38" target="syfnube15VQFn80s3zHn-55" edge="1">
          <mxGeometry relative="1" as="geometry">
            <mxPoint x="660" y="740" as="targetPoint" />
          </mxGeometry>
        </mxCell>
        <mxCell id="syfnube15VQFn80s3zHn-38" value="Map" style="swimlane;fontStyle=1;align=center;verticalAlign=top;childLayout=stackLayout;horizontal=1;startSize=26;horizontalStack=0;resizeParent=1;resizeParentMax=0;resizeLast=0;collapsible=1;marginBottom=0;" parent="R7GNkkLH_jsWwi8psKVv-1" vertex="1">
          <mxGeometry x="675" y="810" width="160" height="60" as="geometry" />
        </mxCell>
        <mxCell id="syfnube15VQFn80s3zHn-39" value="" style="line;strokeWidth=1;fillColor=none;align=left;verticalAlign=middle;spacingTop=-1;spacingLeft=3;spacingRight=3;rotatable=0;labelPosition=right;points=[];portConstraint=eastwest;" parent="syfnube15VQFn80s3zHn-38" vertex="1">
          <mxGeometry y="26" width="160" height="8" as="geometry" />
        </mxCell>
        <mxCell id="syfnube15VQFn80s3zHn-40" value="+ peek_gold(): Void" style="text;strokeColor=none;fillColor=none;align=left;verticalAlign=top;spacingLeft=4;spacingRight=4;overflow=hidden;rotatable=0;points=[[0,0.5],[1,0.5]];portConstraint=eastwest;" parent="syfnube15VQFn80s3zHn-38" vertex="1">
          <mxGeometry y="34" width="160" height="26" as="geometry" />
        </mxCell>
        <mxCell id="syfnube15VQFn80s3zHn-41" value="Room" style="swimlane;fontStyle=1;align=center;verticalAlign=top;childLayout=stackLayout;horizontal=1;startSize=26;horizontalStack=0;resizeParent=1;resizeParentMax=0;resizeLast=0;collapsible=1;marginBottom=0;" parent="R7GNkkLH_jsWwi8psKVv-1" vertex="1">
          <mxGeometry x="80" y="450" width="170" height="94" as="geometry" />
        </mxCell>
        <mxCell id="syfnube15VQFn80s3zHn-42" value="- state: Room_State&#xa;- controller: Game_Controller" style="text;strokeColor=none;fillColor=none;align=left;verticalAlign=top;spacingLeft=4;spacingRight=4;overflow=hidden;rotatable=0;points=[[0,0.5],[1,0.5]];portConstraint=eastwest;" parent="syfnube15VQFn80s3zHn-41" vertex="1">
          <mxGeometry y="26" width="170" height="34" as="geometry" />
        </mxCell>
        <mxCell id="syfnube15VQFn80s3zHn-43" value="" style="line;strokeWidth=1;fillColor=none;align=left;verticalAlign=middle;spacingTop=-1;spacingLeft=3;spacingRight=3;rotatable=0;labelPosition=right;points=[];portConstraint=eastwest;" parent="syfnube15VQFn80s3zHn-41" vertex="1">
          <mxGeometry y="60" width="170" height="8" as="geometry" />
        </mxCell>
        <mxCell id="syfnube15VQFn80s3zHn-44" value="+ get_state(): Room_State" style="text;strokeColor=none;fillColor=none;align=left;verticalAlign=top;spacingLeft=4;spacingRight=4;overflow=hidden;rotatable=0;points=[[0,0.5],[1,0.5]];portConstraint=eastwest;" parent="syfnube15VQFn80s3zHn-41" vertex="1">
          <mxGeometry y="68" width="170" height="26" as="geometry" />
        </mxCell>
        <mxCell id="syfnube15VQFn80s3zHn-45" value="&lt;&lt;enumerate&gt;&gt;&#xa;Room_State" style="swimlane;fontStyle=1;align=center;verticalAlign=top;childLayout=stackLayout;horizontal=1;startSize=40;horizontalStack=0;resizeParent=1;resizeParentMax=0;resizeLast=0;collapsible=1;marginBottom=0;" parent="R7GNkkLH_jsWwi8psKVv-1" vertex="1">
          <mxGeometry x="590" y="20" width="160" height="98" as="geometry" />
        </mxCell>
        <mxCell id="syfnube15VQFn80s3zHn-46" value="waiting: Int=0&#xa;playing: Int=1&#xa;end: Int=2" style="text;strokeColor=none;fillColor=none;align=left;verticalAlign=top;spacingLeft=4;spacingRight=4;overflow=hidden;rotatable=0;points=[[0,0.5],[1,0.5]];portConstraint=eastwest;" parent="syfnube15VQFn80s3zHn-45" vertex="1">
          <mxGeometry y="40" width="160" height="50" as="geometry" />
        </mxCell>
        <mxCell id="syfnube15VQFn80s3zHn-47" value="" style="line;strokeWidth=1;fillColor=none;align=left;verticalAlign=middle;spacingTop=-1;spacingLeft=3;spacingRight=3;rotatable=0;labelPosition=right;points=[];portConstraint=eastwest;" parent="syfnube15VQFn80s3zHn-45" vertex="1">
          <mxGeometry y="90" width="160" height="8" as="geometry" />
        </mxCell>
        <mxCell id="syfnube15VQFn80s3zHn-48" value="Road" style="swimlane;fontStyle=1;align=center;verticalAlign=top;childLayout=stackLayout;horizontal=1;startSize=26;horizontalStack=0;resizeParent=1;resizeParentMax=0;resizeLast=0;collapsible=1;marginBottom=0;" parent="R7GNkkLH_jsWwi8psKVv-1" vertex="1">
          <mxGeometry x="770" y="630" width="160" height="114" as="geometry" />
        </mxCell>
        <mxCell id="syfnube15VQFn80s3zHn-49" value="+ rotate: Int&#xa;+ is_connected: Bool[4]&#xa;- road_type: Road_type" style="text;strokeColor=none;fillColor=none;align=left;verticalAlign=top;spacingLeft=4;spacingRight=4;overflow=hidden;rotatable=0;points=[[0,0.5],[1,0.5]];portConstraint=eastwest;" parent="syfnube15VQFn80s3zHn-48" vertex="1">
          <mxGeometry y="26" width="160" height="54" as="geometry" />
        </mxCell>
        <mxCell id="syfnube15VQFn80s3zHn-50" value="" style="line;strokeWidth=1;fillColor=none;align=left;verticalAlign=middle;spacingTop=-1;spacingLeft=3;spacingRight=3;rotatable=0;labelPosition=right;points=[];portConstraint=eastwest;" parent="syfnube15VQFn80s3zHn-48" vertex="1">
          <mxGeometry y="80" width="160" height="8" as="geometry" />
        </mxCell>
        <mxCell id="syfnube15VQFn80s3zHn-51" value="+ get_type(): Road_Type" style="text;strokeColor=none;fillColor=none;align=left;verticalAlign=top;spacingLeft=4;spacingRight=4;overflow=hidden;rotatable=0;points=[[0,0.5],[1,0.5]];portConstraint=eastwest;" parent="syfnube15VQFn80s3zHn-48" vertex="1">
          <mxGeometry y="88" width="160" height="26" as="geometry" />
        </mxCell>
        <mxCell id="syfnube15VQFn80s3zHn-52" value="Action" style="swimlane;fontStyle=1;align=center;verticalAlign=top;childLayout=stackLayout;horizontal=1;startSize=26;horizontalStack=0;resizeParent=1;resizeParentMax=0;resizeLast=0;collapsible=1;marginBottom=0;" parent="R7GNkkLH_jsWwi8psKVv-1" vertex="1">
          <mxGeometry x="570" y="630" width="180" height="108" as="geometry" />
        </mxCell>
        <mxCell id="syfnube15VQFn80s3zHn-53" value="- action_type: Action_Type[1..2]&#xa;- is_break: Bool" style="text;strokeColor=none;fillColor=none;align=left;verticalAlign=top;spacingLeft=4;spacingRight=4;overflow=hidden;rotatable=0;points=[[0,0.5],[1,0.5]];portConstraint=eastwest;" parent="syfnube15VQFn80s3zHn-52" vertex="1">
          <mxGeometry y="26" width="180" height="34" as="geometry" />
        </mxCell>
        <mxCell id="syfnube15VQFn80s3zHn-54" value="" style="line;strokeWidth=1;fillColor=none;align=left;verticalAlign=middle;spacingTop=-1;spacingLeft=3;spacingRight=3;rotatable=0;labelPosition=right;points=[];portConstraint=eastwest;" parent="syfnube15VQFn80s3zHn-52" vertex="1">
          <mxGeometry y="60" width="180" height="8" as="geometry" />
        </mxCell>
        <mxCell id="syfnube15VQFn80s3zHn-55" value="+ get_type(): List[Action_Type]&#xa;+ get_break(): Bool" style="text;strokeColor=none;fillColor=none;align=left;verticalAlign=top;spacingLeft=4;spacingRight=4;overflow=hidden;rotatable=0;points=[[0,0.5],[1,0.5]];portConstraint=eastwest;" parent="syfnube15VQFn80s3zHn-52" vertex="1">
          <mxGeometry y="68" width="180" height="40" as="geometry" />
        </mxCell>
      </root>
    </mxGraphModel>
  </diagram>
</mxfile>
